<svg xmlns="http://www.w3.org/2000/svg" width="645" height="108" viewBox="0 0 645 108"><defs><style type="text/css"/></defs><g><g class="relationship"><g stroke="#000" stroke-width="5" transform="translate(54 54) scale(1) translate(0 0) rotate(0)"><path d="M 59 0 L 250.6378493822517 0"/><polygon fill="#000" stroke="none" points="-24.862 0 -27.625 9.208 0 0 -27.625 -9.208" transform="translate(275.5 0) rotate(0)"/></g><g><g><g fill="#fff" stroke="#000" stroke-width="0" transform="translate(54 54) scale(1) translate(154.81892469112586 0) rotate(0) translate(0 -13) translate(0 0) translate(-42.78515625 0)"><rect width="85.57" height="26" x="0" y="0" stroke="none" rx="5" ry="5"/><text x="5" y="17.457" fill="#000" stroke="none" font-family="sans-serif" font-size="16" font-weight="normal" text-anchor="left" xml:space="preserve">MemberOf</text></g></g></g></g><g class="node"><g fill="#fff" stroke="#000" stroke-width="4" transform="translate(54 54) scale(1)"><circle cx="0" cy="0" r="52"/></g><g><g><g><g fill="#000" font-family="sans-serif" font-size="50" font-weight="normal" text-anchor="middle"><text x="0" y="13.928" stroke="none" transform="translate(54 54) scale(1) translate(0 0) scale(0.49218800781249994) translate(0 0) translate(0 0)" xml:space="preserve">GroupA</text></g></g></g></g></g><g class="node"><g fill="#fff" stroke="#000" stroke-width="4" transform="translate(54 54) scale(1)"><circle cx="334.5" cy="0" r="52"/></g><g><g><g><g fill="#000" font-family="sans-serif" font-size="50" font-weight="normal" text-anchor="middle"><text x="0" y="13.928" stroke="none" transform="translate(54 54) scale(1) translate(334.5 0) scale(0.49218800781249994) translate(0 0) translate(0 0)" xml:space="preserve">GroupB</text></g></g></g><g><g><g fill="#fff" transform="translate(54 54) scale(1) translate(334.5 0) translate(56 -9.6) translate(0 0) translate(0 0)"><rect width="200.094" height="19.2" x="0" y="0" stroke="none" rx="0" ry="0"/><g fill="#000" font-family="sans-serif" font-size="16" font-weight="normal" text-anchor="end"><text x="98.703" y="14.057" stroke="none" xml:space="preserve">system_tags:</text><text x="103.148" y="14.057" stroke="none" text-anchor="start" xml:space="preserve">admin_tier_0</text></g></g></g></g></g></g></g></svg>