<svg xmlns="http://www.w3.org/2000/svg" width="485" height="659" viewBox="0 0 485 659"><defs><style type="text/css"/></defs><g><g class="relationship"><g stroke="#000" stroke-width="5" transform="translate(-75 239.5850628807675) scale(1) translate(129 -4) rotate(13.991848102669211)"><path d="M 59 0 L 304.0567883961694 0"/><polygon fill="#000" stroke="none" points="-24.862 0 -27.625 9.208 0 0 -27.625 -9.208" transform="translate(328.91893901391774 0) rotate(0)"/></g><g><g><g fill="#fff" stroke="#000" stroke-width="0" transform="translate(-75 239.5850628807675) scale(1) translate(305.14247151816426 39.89063257242864) rotate(13.991848102669211) translate(0 -13) translate(0 0) translate(-53.0078125 0)"><rect width="106.016" height="26" x="0" y="0" stroke="none" rx="5" ry="5"/><text x="5" y="17.457" fill="#000" stroke="none" font-family="sans-serif" font-size="16" font-weight="normal" text-anchor="left" xml:space="preserve">AZMemberOf</text></g></g></g></g><g class="relationship"><g stroke="#000" stroke-width="5" transform="translate(-75 239.5850628807675) scale(1) translate(129 155.58506288076748) rotate(-9.914559571910537)"><path d="M 59 0 L 298.2539593344783 0"/><polygon fill="#000" stroke="none" points="-24.862 0 -27.625 9.208 0 0 -27.625 -9.208" transform="translate(323.1161099522266 0) rotate(0)"/></g><g><g><g fill="#fff" stroke="#000" stroke-width="0" transform="translate(-75 239.5850628807675) scale(1) translate(304.9592937990774 124.82917253809927) rotate(-9.914559571910537) translate(0 -13) translate(0 0) translate(-53.0078125 0)"><rect width="106.016" height="26" x="0" y="0" stroke="none" rx="5" ry="5"/><text x="5" y="17.457" fill="#000" stroke="none" font-family="sans-serif" font-size="16" font-weight="normal" text-anchor="left" xml:space="preserve">AZMemberOf</text></g></g></g></g><g class="relationship"><g stroke="#000" stroke-width="5" transform="translate(-75 239.5850628807675) scale(1) translate(129 365.17012576153496) rotate(-36.188850429299386)"><path d="M 59 0 L 382.52490296092134 0"/><polygon fill="#000" stroke="none" points="-24.862 0 -27.625 9.208 0 0 -27.625 -9.208" transform="translate(407.3870535786696 0) rotate(0)"/></g><g><g><g fill="#fff" stroke="#000" stroke-width="0" transform="translate(-75 239.5850628807675) scale(1) translate(307.17190559513824 234.8212399194998) rotate(-36.188850429299386) translate(0 -13) translate(0 0) translate(-53.0078125 0)"><rect width="106.016" height="26" x="0" y="0" stroke="none" rx="5" ry="5"/><text x="5" y="17.457" fill="#000" stroke="none" font-family="sans-serif" font-size="16" font-weight="normal" text-anchor="left" xml:space="preserve">AZMemberOf</text></g></g></g></g><g class="relationship"><g stroke="#000" stroke-width="5" transform="translate(-75 239.5850628807675) scale(1) translate(129 -185.5850628807675) rotate(36.18885042929937)"><path d="M 59 0 L 382.5249029609212 0"/><polygon fill="#000" stroke="none" points="-24.862 0 -27.625 9.208 0 0 -27.625 -9.208" transform="translate(407.3870535786695 0) rotate(0)"/></g><g><g><g fill="#fff" stroke="#000" stroke-width="0" transform="translate(-75 239.5850628807675) scale(1) translate(307.1719055951382 -55.23617703873242) rotate(36.18885042929937) translate(0 -13) translate(0 0) translate(-46.796875 0)"><rect width="93.594" height="26" x="0" y="0" stroke="none" rx="5" ry="5"/><text x="5" y="17.457" fill="#000" stroke="none" font-family="sans-serif" font-size="16" font-weight="normal" text-anchor="left" xml:space="preserve">AZContains</text></g></g></g></g><g class="node"><g fill="#fff" stroke="#000" stroke-width="4" transform="translate(-75 239.5850628807675) scale(1)"><circle cx="505.409" cy="89.793" r="52"/></g><g><g><g><g fill="#000" font-family="sans-serif" font-size="50" font-weight="normal" text-anchor="middle"><text x="0" y="43.928" stroke="none" transform="translate(-75 239.5850628807675) scale(1) translate(505.40943703856345 89.79253144038367) scale(0.3652888956812596) translate(0 -59) translate(0 0)" xml:space="preserve">Group</text></g></g><g><g><g fill="#fff" stroke="#000" stroke-width="4" transform="translate(-75 239.5850628807675) scale(1) translate(505.40943703856345 89.79253144038367) scale(0.3652888956812596) translate(0 -59) translate(0 64) translate(-108.142578125 0)"><rect width="216.285" height="54" x="0" y="0" rx="27" ry="27"/><text x="27" y="38.143" fill="#000" stroke="none" font-family="sans-serif" font-size="40" font-weight="normal" xml:space="preserve">AZGroup</text></g></g></g></g></g></g><g class="node"><g fill="#fff" stroke="#000" stroke-width="4" transform="translate(-75 239.5850628807675) scale(1)"><circle cx="129" cy="-4" r="52"/></g><g><g><g><g fill="#000" font-family="sans-serif" font-size="50" font-weight="normal" text-anchor="middle"><text x="0" y="43.928" stroke="none" transform="translate(-75 239.5850628807675) scale(1) translate(129 -4) scale(0.40305924587594943) translate(0 -59) translate(0 0)" xml:space="preserve">UserA</text></g></g><g><g><g fill="#fff" stroke="#000" stroke-width="4" transform="translate(-75 239.5850628807675) scale(1) translate(129 -4) scale(0.40305924587594943) translate(0 -59) translate(0 64) translate(-94.783203125 0)"><rect width="189.566" height="54" x="0" y="0" rx="27" ry="27"/><text x="27" y="38.143" fill="#000" stroke="none" font-family="sans-serif" font-size="40" font-weight="normal" xml:space="preserve">AZUser</text></g></g></g></g></g></g><g class="node"><g fill="#fff" stroke="#000" stroke-width="4" transform="translate(-75 239.5850628807675) scale(1)"><circle cx="129" cy="155.585" r="52"/></g><g><g><g><g fill="#000" font-family="sans-serif" font-size="50" font-weight="normal" text-anchor="middle"><text x="0" y="43.928" stroke="none" transform="translate(-75 239.5850628807675) scale(1) translate(129 155.58506288076748) scale(0.40305924587594943) translate(0 -59) translate(0 0)" xml:space="preserve">UserB</text></g></g><g><g><g fill="#fff" stroke="#000" stroke-width="4" transform="translate(-75 239.5850628807675) scale(1) translate(129 155.58506288076748) scale(0.40305924587594943) translate(0 -59) translate(0 64) translate(-94.783203125 0)"><rect width="189.566" height="54" x="0" y="0" rx="27" ry="27"/><text x="27" y="38.143" fill="#000" stroke="none" font-family="sans-serif" font-size="40" font-weight="normal" xml:space="preserve">AZUser</text></g></g></g></g></g></g><g class="node"><g fill="#fff" stroke="#000" stroke-width="4" transform="translate(-75 239.5850628807675) scale(1)"><circle cx="129" cy="365.17" r="52"/></g><g><g><g><g fill="#000" font-family="sans-serif" font-size="50" font-weight="normal" text-anchor="middle"><text x="0" y="43.928" stroke="none" transform="translate(-75 239.5850628807675) scale(1) translate(129 365.17012576153496) scale(0.40305924587594943) translate(0 -59) translate(0 0)" xml:space="preserve">UserC</text></g></g><g><g><g fill="#fff" stroke="#000" stroke-width="4" transform="translate(-75 239.5850628807675) scale(1) translate(129 365.17012576153496) scale(0.40305924587594943) translate(0 -59) translate(0 64) translate(-94.783203125 0)"><rect width="189.566" height="54" x="0" y="0" rx="27" ry="27"/><text x="27" y="38.143" fill="#000" stroke="none" font-family="sans-serif" font-size="40" font-weight="normal" xml:space="preserve">AZUser</text></g></g></g></g></g></g><g class="node"><g fill="#fff" stroke="#000" stroke-width="4" transform="translate(-75 239.5850628807675) scale(1)"><circle cx="129" cy="-185.585" r="52"/></g><g><g><g><g fill="#000" font-family="sans-serif" font-size="50" font-weight="normal" text-anchor="middle"><text x="0" y="13.928" stroke="none" transform="translate(-75 239.5850628807675) scale(1) translate(129 -185.5850628807675) scale(0.5546879453125) translate(0 0) translate(0 0)" xml:space="preserve">Tenant</text></g></g></g></g></g></g></svg>