<svg xmlns="http://www.w3.org/2000/svg" width="1077" height="760" viewBox="0 0 1077 760"><defs><style type="text/css"/></defs><g><g class="relationship"><g stroke="#000" stroke-width="5" transform="translate(365.05110474644664 4) scale(1) translate(415.0216781311826 50) rotate(0)"><path d="M 59 0 L 158.4616592191594 0"/><polygon fill="#000" stroke="none" points="-24.862 0 -27.625 9.208 0 0 -27.625 -9.208" transform="translate(183.32380983690769 0) rotate(0)"/></g><g><g><g fill="#fff" stroke="#000" stroke-width="0" transform="translate(365.05110474644664 4) scale(1) translate(523.7525077407623 50) rotate(0) translate(0 -13) translate(0 0) translate(-62.6484375 0)"><rect width="125.297" height="26" x="0" y="0" stroke="none" rx="5" ry="5"/><text x="5" y="17.5" fill="#000" stroke="none" font-family="sans-serif" font-size="16" font-weight="normal" text-anchor="left" xml:space="preserve">NTAuthStoreFor</text></g></g></g></g><g class="relationship"><g stroke="#000" stroke-width="5" transform="translate(365.05110474644664 4) scale(1) translate(415.0216781311826 327.97628342478527) rotate(-90)"><path d="M 59 0 L 194.11413280703695 0"/><polygon fill="#000" stroke="none" points="-24.862 0 -27.625 9.208 0 0 -27.625 -9.208" transform="translate(218.97628342478527 0) rotate(0)"/></g><g><g><g fill="#fff" stroke="#000" stroke-width="0" transform="translate(365.05110474644664 4) scale(1) translate(415.0216781311826 201.41921702126677) rotate(90) translate(0 -13) translate(0 0) translate(-70.3515625 0)"><rect width="140.703" height="26" x="0" y="0" stroke="none" rx="5" ry="5"/><text x="5" y="17.5" fill="#000" stroke="none" font-family="sans-serif" font-size="16" font-weight="normal" text-anchor="left" xml:space="preserve">TrustedForNTAuth</text></g></g></g></g><g class="relationship"><g stroke="#000" stroke-width="5" transform="translate(365.05110474644664 4) scale(1) translate(657.3454879680903 327.97628342478527) rotate(-90)"><path d="M 59 0 L 194.11413280703695 0"/><polygon fill="#000" stroke="none" points="-24.862 0 -27.625 9.208 0 0 -27.625 -9.208" transform="translate(218.97628342478527 0) rotate(0)"/></g><g><g><g fill="#fff" stroke="#000" stroke-width="0" transform="translate(365.05110474644664 4) scale(1) translate(657.3454879680903 201.41921702126677) rotate(90) translate(0 -13) translate(0 0) translate(-45.01171875 0)"><rect width="90.023" height="26" x="0" y="0" stroke="none" rx="5" ry="5"/><text x="5" y="17.5" fill="#000" stroke="none" font-family="sans-serif" font-size="16" font-weight="normal" text-anchor="left" xml:space="preserve">RootCAFor</text></g></g></g></g><g class="relationship"><g stroke="#000" stroke-width="5" transform="translate(365.05110474644664 4) scale(1) translate(415.0216781311826 327.97628342478527) rotate(0)"><path d="M 59 0 L 158.4616592191594 0"/><polygon fill="#000" stroke="none" points="-24.862 0 -27.625 9.208 0 0 -27.625 -9.208" transform="translate(183.32380983690769 0) rotate(0)"/></g><g><g><g fill="#fff" stroke="#000" stroke-width="0" transform="translate(365.05110474644664 4) scale(1) translate(523.7525077407623 327.97628342478527) rotate(0) translate(0 -13) translate(0 0) translate(-64.57421875 0)"><rect width="129.148" height="26" x="0" y="0" stroke="none" rx="5" ry="5"/><text x="5" y="17.5" fill="#000" stroke="none" font-family="sans-serif" font-size="16" font-weight="normal" text-anchor="left" xml:space="preserve">EnterpriseCAFor</text></g></g></g></g><g class="relationship"><g stroke="#000" stroke-width="5" transform="translate(365.05110474644664 4) scale(1) translate(75 327.97628342478527) rotate(0)"><path d="M 59 0 L 256.15952751343434 0"/><polygon fill="#000" stroke="none" points="-24.862 0 -27.625 9.208 0 0 -27.625 -9.208" transform="translate(281.0216781311826 0) rotate(0)"/></g><g><g><g fill="#fff" stroke="#000" stroke-width="0" transform="translate(365.05110474644664 4) scale(1) translate(232.57976375671717 327.97628342478527) rotate(0) translate(0 -13) translate(0 0) translate(-48.5859375 0)"><rect width="97.172" height="26" x="0" y="0" stroke="none" rx="5" ry="5"/><text x="5" y="17.5" fill="#000" stroke="none" font-family="sans-serif" font-size="16" font-weight="normal" text-anchor="left" xml:space="preserve">PublishedTo</text></g></g></g></g><g class="relationship"><g stroke="#000" stroke-width="5" transform="translate(365.05110474644664 4) scale(1) translate(75 524.287890824132) rotate(-30.000000000000014)"><path d="M 59 0 L 308.7610641809449 0"/><polygon fill="#000" stroke="none" points="-24.862 0 -27.625 9.208 0 0 -27.625 -9.208" transform="translate(333.62321479869325 0) rotate(0)"/></g><g><g><g fill="#fff" stroke="#000" stroke-width="0" transform="translate(365.05110474644664 4) scale(1) translate(234.2452120517488 432.3476247788957) rotate(-30.000000000000014) translate(0 -13) translate(0 0) translate(-48.5859375 0)"><rect width="97.172" height="26" x="0" y="0" stroke="none" rx="5" ry="5"/><text x="5" y="17.5" fill="#000" stroke="none" font-family="sans-serif" font-size="16" font-weight="normal" text-anchor="left" xml:space="preserve">PublishedTo</text></g></g></g></g><g class="relationship"><g stroke="#000" stroke-width="5" transform="translate(365.05110474644664 4) scale(1) translate(245.01083906559165 622.4436945238048) rotate(-60.00000000000002)"><path d="M 59 0 L 256.1595275134339 0"/><polygon fill="#000" stroke="none" points="-24.862 0 -27.625 9.208 0 0 -27.625 -9.208" transform="translate(281.02167813118217 0) rotate(0)"/></g><g><g><g fill="#fff" stroke="#000" stroke-width="0" transform="translate(365.05110474644664 4) scale(1) translate(323.80072094395007 485.9756159881375) rotate(-60.00000000000002) translate(0 -13) translate(0 0) translate(-48.5859375 0)"><rect width="97.172" height="26" x="0" y="0" stroke="none" rx="5" ry="5"/><text x="5" y="17.5" fill="#000" stroke="none" font-family="sans-serif" font-size="16" font-weight="normal" text-anchor="left" xml:space="preserve">PublishedTo</text></g></g></g></g><g class="relationship"><g stroke="#000" stroke-width="5" transform="translate(365.05110474644664 4) scale(1) translate(531.0216781311826 622.4436945238048) rotate(-111.50104465455937)"><path d="M 59 0 L 232.62964421958858 0"/><polygon fill="#000" stroke="none" points="-24.862 0 -27.625 9.208 0 0 -27.625 -9.208" transform="translate(257.4917948373369 0) rotate(0)"/></g><g><g><g fill="#fff" stroke="#000" stroke-width="0" transform="translate(365.05110474644664 4) scale(1) translate(477.5778933612505 486.77599676057105) rotate(68.49895534544063) translate(0 -13) translate(0 0) translate(-48.5859375 0)"><rect width="97.172" height="26" x="0" y="0" stroke="none" rx="5" ry="5"/><text x="5" y="17.5" fill="#000" stroke="none" font-family="sans-serif" font-size="16" font-weight="normal" text-anchor="left" xml:space="preserve">PublishedTo</text></g></g></g></g><g class="relationship"><g stroke="#a4dd00" stroke-width="5" transform="translate(365.05110474644664 4) scale(1) translate(75 327.97628342478527) rotate(59.99999999999992)"><path d="M 59 0 L 256.1595275134342 0"/><polygon fill="#a4dd00" stroke="none" points="-24.862 0 -27.625 9.208 0 0 -27.625 -9.208" transform="translate(281.0216781311825 0) rotate(0)"/></g><g><g><g fill="#fff" stroke="#000" stroke-width="0" transform="translate(365.05110474644664 4) scale(1) translate(153.78988187835876 464.4443619604525) rotate(59.99999999999992) translate(0 -13) translate(0 0) translate(-67.25390625 0)"><rect width="134.508" height="26" x="0" y="0" stroke="none" rx="5" ry="5"/><text x="5" y="17.5" fill="#000" stroke="none" font-family="sans-serif" font-size="16" font-weight="normal" text-anchor="left" xml:space="preserve">EnrollOnBehalfOf</text></g></g></g></g><g class="node"><g fill="#68ccca" stroke="#000" stroke-width="4" transform="translate(365.05110474644664 4) scale(1)"><circle cx="657.345" cy="50" r="52"/></g><g><g><g><g fill="#000" font-family="sans-serif" font-size="50" font-weight="normal" text-anchor="middle"><text x="0" y="13" stroke="none" transform="translate(365.05110474644664 4) scale(1) translate(657.3454879680903 50) scale(0.4296880703125) translate(0 0) translate(0 0)" xml:space="preserve">Domain2</text></g></g></g></g></g><g class="node"><g fill="#7b64ff" stroke="#000" stroke-width="4" transform="translate(365.05110474644664 4) scale(1)"><circle cx="415.022" cy="50" r="52"/></g><g><g><g><g fill="#000" font-family="sans-serif" font-size="50" font-weight="normal" text-anchor="middle"><text x="0" y="13" stroke="none" transform="translate(365.05110474644664 4) scale(1) translate(415.0216781311826 50) scale(0.28125071874999996) translate(0 0) translate(0 0)" xml:space="preserve">NTAuthStore2</text></g></g></g></g></g><g class="node"><g fill="#b0bc00" stroke="#000" stroke-width="4" transform="translate(365.05110474644664 4) scale(1)"><circle cx="415.022" cy="327.976" r="52"/></g><g><g><g><g fill="#000" font-family="sans-serif" font-size="50" font-weight="normal" text-anchor="middle"><text x="0" y="13" stroke="none" transform="translate(365.05110474644664 4) scale(1) translate(415.0216781311826 327.97628342478527) scale(0.27148510351562494) translate(0 0) translate(0 0)" xml:space="preserve">EnterpriseCA2</text></g></g></g></g></g><g class="node"><g fill="#e27300" stroke="#000" stroke-width="4" transform="translate(365.05110474644664 4) scale(1)"><circle cx="657.345" cy="327.976" r="52"/></g><g><g><g><g fill="#000" font-family="sans-serif" font-size="50" font-weight="normal" text-anchor="middle"><text x="0" y="13" stroke="none" transform="translate(365.05110474644664 4) scale(1) translate(657.3454879680903 327.97628342478527) scale(0.421875578125) translate(0 0) translate(0 0)" xml:space="preserve">RootCA2</text></g></g></g></g></g><g class="node"><g fill="#fda1ff" stroke="#000" stroke-width="4" transform="translate(365.05110474644664 4) scale(1)"><circle cx="75" cy="327.976" r="52"/></g><g><g><g><g fill="#000" font-family="sans-serif" font-size="50" font-weight="normal" text-anchor="middle"><text x="0" y="13" stroke="none" transform="translate(365.05110474644664 4) scale(1) translate(75 327.97628342478527) scale(0.24023513476562502) translate(0 0) translate(0 0)" xml:space="preserve">CertTemplate2-1</text></g></g></g><g><g><g fill="#fff" transform="translate(365.05110474644664 4) scale(1) translate(75 327.97628342478527) translate(-39.597979746446654 -77.99797974644666) translate(0 0) translate(-300.1328125 0)"><rect width="300.133" height="38.4" x="0" y="0" stroke="none" rx="0" ry="0"/><g fill="#000" font-family="sans-serif" font-size="16" font-weight="normal" text-anchor="end"><text x="116.492" y="14.1" stroke="none" xml:space="preserve">effectiveekus:</text><text x="120.938" y="14.1" stroke="none" text-anchor="start" xml:space="preserve">[&quot;1.3.6.1.4.1.311.20.2.1&quot;]</text><text x="116.492" y="33.3" stroke="none" text-anchor="end" xml:space="preserve">schemaversion:</text><text x="120.938" y="33.3" stroke="none" text-anchor="start" xml:space="preserve">2</text></g></g></g></g></g></g><g class="node"><g fill="#fda1ff" stroke="#000" stroke-width="4" transform="translate(365.05110474644664 4) scale(1)"><circle cx="75" cy="524.288" r="52"/></g><g><g><g><g fill="#000" font-family="sans-serif" font-size="50" font-weight="normal" text-anchor="middle"><text x="0" y="13" stroke="none" transform="translate(365.05110474644664 4) scale(1) translate(75 524.287890824132) scale(0.24023513476562502) translate(0 0) translate(0 0)" xml:space="preserve">CertTemplate2-2</text></g></g></g><g><g><g fill="#fff" transform="translate(365.05110474644664 4) scale(1) translate(75 524.287890824132) translate(-39.597979746446654 39.59797974644666) translate(0 0) translate(-400.453125 0)"><rect width="400.453" height="38.4" x="0" y="0" stroke="none" rx="0" ry="0"/><g fill="#000" font-family="sans-serif" font-size="16" font-weight="normal" text-anchor="end"><text x="116.492" y="14.1" stroke="none" xml:space="preserve">effectiveekus:</text><text x="120.938" y="14.1" stroke="none" text-anchor="start" xml:space="preserve">[&quot;1.3.6.1.4.1.311.20.2.1&quot;, &quot;2.5.29.37.0&quot;]</text><text x="116.492" y="33.3" stroke="none" text-anchor="end" xml:space="preserve">schemaversion:</text><text x="120.938" y="33.3" stroke="none" text-anchor="start" xml:space="preserve">2</text></g></g></g></g></g></g><g class="node"><g fill="#fda1ff" stroke="#000" stroke-width="4" transform="translate(365.05110474644664 4) scale(1)"><circle cx="245.011" cy="622.444" r="52"/></g><g><g><g><g fill="#000" font-family="sans-serif" font-size="50" font-weight="normal" text-anchor="middle"><text x="0" y="13" stroke="none" transform="translate(365.05110474644664 4) scale(1) translate(245.01083906559165 622.4436945238048) scale(0.24023513476562502) translate(0 0) translate(0 0)" xml:space="preserve">CertTemplate2-3</text></g></g></g><g><g><g fill="#fff" transform="translate(365.05110474644664 4) scale(1) translate(245.01083906559165 622.4436945238048) translate(3.429011037612589e-15 56) translate(0 0) translate(-170.53515625 0)"><rect width="341.07" height="76.8" x="0" y="0" stroke="none" rx="0" ry="0"/><g fill="#000" font-family="sans-serif" font-size="16" font-weight="normal" text-anchor="end"><text x="157.43" y="14.1" stroke="none" xml:space="preserve">effectiveekus:</text><text x="161.875" y="14.1" stroke="none" text-anchor="start" xml:space="preserve">[]</text><text x="157.43" y="33.3" stroke="none" text-anchor="end" xml:space="preserve">schemaversion:</text><text x="161.875" y="33.3" stroke="none" text-anchor="start" xml:space="preserve">2</text><text x="157.43" y="52.5" stroke="none" text-anchor="end" xml:space="preserve">authorizedsignatures:</text><text x="161.875" y="52.5" stroke="none" text-anchor="start" xml:space="preserve">1</text><text x="157.43" y="71.7" stroke="none" text-anchor="end" xml:space="preserve">applicationpolicies:</text><text x="161.875" y="71.7" stroke="none" text-anchor="start" xml:space="preserve">[&quot;1.3.6.1.4.1.311.20.2.1&quot;]</text></g></g></g></g></g></g><g class="node"><g fill="#fda1ff" stroke="#000" stroke-width="4" transform="translate(365.05110474644664 4) scale(1)"><circle cx="531.022" cy="622.444" r="52"/></g><g><g><g><g fill="#000" font-family="sans-serif" font-size="50" font-weight="normal" text-anchor="middle"><text x="0" y="13" stroke="none" transform="translate(365.05110474644664 4) scale(1) translate(531.0216781311826 622.4436945238048) scale(0.24023513476562502) translate(0 0) translate(0 0)" xml:space="preserve">CertTemplate2-4</text></g></g></g><g><g><g fill="#fff" transform="translate(365.05110474644664 4) scale(1) translate(531.0216781311826 622.4436945238048) translate(3.429011037612589e-15 56) translate(0 0) translate(-87.609375 0)"><rect width="175.219" height="76.8" x="0" y="0" stroke="none" rx="0" ry="0"/><g fill="#000" font-family="sans-serif" font-size="16" font-weight="normal" text-anchor="end"><text x="157.43" y="14.1" stroke="none" xml:space="preserve">effectiveekus:</text><text x="161.875" y="14.1" stroke="none" text-anchor="start" xml:space="preserve">[]</text><text x="157.43" y="33.3" stroke="none" text-anchor="end" xml:space="preserve">schemaversion:</text><text x="161.875" y="33.3" stroke="none" text-anchor="start" xml:space="preserve">2</text><text x="157.43" y="52.5" stroke="none" text-anchor="end" xml:space="preserve">authorizedsignatures:</text><text x="161.875" y="52.5" stroke="none" text-anchor="start" xml:space="preserve">1</text><text x="157.43" y="71.7" stroke="none" text-anchor="end" xml:space="preserve">applicationpolicies:</text><text x="161.875" y="71.7" stroke="none" text-anchor="start" xml:space="preserve">[]</text></g></g></g></g></g></g></g></svg>