<svg xmlns="http://www.w3.org/2000/svg" width="1057" height="896" viewBox="0 0 1057 896"><defs><style type="text/css"/></defs><g><g class="relationship"><g stroke="#000" stroke-width="5" transform="translate(326.6622528543699 4) scale(1) translate(433.6313891898351 50) rotate(0)"><path d="M 59 0 L 158.4616592191594 0"/><polygon fill="#000" stroke="none" points="-24.862 0 -27.625 9.208 0 0 -27.625 -9.208" transform="translate(183.32380983690769 0) rotate(0)"/></g><g><g><g fill="#fff" stroke="#000" stroke-width="0" transform="translate(326.6622528543699 4) scale(1) translate(542.3622187994148 50) rotate(0) translate(0 -13) translate(0 0) translate(-62.6484375 0)"><rect width="125.297" height="26" x="0" y="0" stroke="none" rx="5" ry="5"/><text x="5" y="17.5" fill="#000" stroke="none" font-family="sans-serif" font-size="16" font-weight="normal" text-anchor="left" xml:space="preserve">NTAuthStoreFor</text></g></g></g></g><g class="relationship"><g stroke="#000" stroke-width="5" transform="translate(326.6622528543699 4) scale(1) translate(433.6313891898351 327.97628342478527) rotate(-90)"><path d="M 59 0 L 194.11413280703695 0"/><polygon fill="#000" stroke="none" points="-24.862 0 -27.625 9.208 0 0 -27.625 -9.208" transform="translate(218.97628342478527 0) rotate(0)"/></g><g><g><g fill="#fff" stroke="#000" stroke-width="0" transform="translate(326.6622528543699 4) scale(1) translate(433.6313891898351 201.41921702126677) rotate(90) translate(0 -13) translate(0 0) translate(-70.3515625 0)"><rect width="140.703" height="26" x="0" y="0" stroke="none" rx="5" ry="5"/><text x="5" y="17.5" fill="#000" stroke="none" font-family="sans-serif" font-size="16" font-weight="normal" text-anchor="left" xml:space="preserve">TrustedForNTAuth</text></g></g></g></g><g class="relationship"><g stroke="#000" stroke-width="5" transform="translate(326.6622528543699 4) scale(1) translate(-44.95912785436991 327.97628342478527) rotate(0)"><path d="M 59 0 L 394.7283664264567 0"/><polygon fill="#000" stroke="none" points="-24.862 0 -27.625 9.208 0 0 -27.625 -9.208" transform="translate(419.590517044205 0) rotate(0)"/></g><g><g><g fill="#fff" stroke="#000" stroke-width="0" transform="translate(326.6622528543699 4) scale(1) translate(181.90505535885845 327.97628342478527) rotate(0) translate(0 -13) translate(0 0) translate(-48.5859375 0)"><rect width="97.172" height="26" x="0" y="0" stroke="none" rx="5" ry="5"/><text x="5" y="17.5" fill="#000" stroke="none" font-family="sans-serif" font-size="16" font-weight="normal" text-anchor="left" xml:space="preserve">PublishedTo</text></g></g></g></g><g class="relationship"><g stroke="#000" stroke-width="5" transform="translate(326.6622528543699 4) scale(1) translate(194.3361306677326 557.3609078601627) rotate(-43.78861262620303)"><path d="M 59 0 L 247.61865829661255 0"/><polygon fill="#000" stroke="none" points="-24.862 0 -27.625 9.208 0 0 -27.625 -9.208" transform="translate(272.48080891436086 0) rotate(0)"/></g><g><g><g fill="#fff" stroke="#000" stroke-width="0" transform="translate(326.6622528543699 4) scale(1) translate(305.009794318264 451.27089618105714) rotate(-43.78861262620303) translate(0 -13) translate(0 0) translate(-48.5859375 0)"><rect width="97.172" height="26" x="0" y="0" stroke="none" rx="5" ry="5"/><text x="5" y="17.5" fill="#000" stroke="none" font-family="sans-serif" font-size="16" font-weight="normal" text-anchor="left" xml:space="preserve">PublishedTo</text></g></g></g></g><g class="relationship"><g stroke="#000" stroke-width="5" transform="translate(326.6622528543699 4) scale(1) translate(675.9551990267428 327.97628342478527) rotate(-90)"><path d="M 59 0 L 194.11413280703695 0"/><polygon fill="#000" stroke="none" points="-24.862 0 -27.625 9.208 0 0 -27.625 -9.208" transform="translate(218.97628342478527 0) rotate(0)"/></g><g><g><g fill="#fff" stroke="#000" stroke-width="0" transform="translate(326.6622528543699 4) scale(1) translate(675.9551990267428 201.41921702126677) rotate(90) translate(0 -13) translate(0 0) translate(-45.01171875 0)"><rect width="90.023" height="26" x="0" y="0" stroke="none" rx="5" ry="5"/><text x="5" y="17.5" fill="#000" stroke="none" font-family="sans-serif" font-size="16" font-weight="normal" text-anchor="left" xml:space="preserve">RootCAFor</text></g></g></g></g><g class="relationship"><g stroke="#000" stroke-width="5" transform="translate(326.6622528543699 4) scale(1) translate(433.6313891898351 327.97628342478527) rotate(0)"><path d="M 59 0 L 158.4616592191594 0"/><polygon fill="#000" stroke="none" points="-24.862 0 -27.625 9.208 0 0 -27.625 -9.208" transform="translate(183.32380983690769 0) rotate(0)"/></g><g><g><g fill="#fff" stroke="#000" stroke-width="0" transform="translate(326.6622528543699 4) scale(1) translate(542.3622187994148 327.97628342478527) rotate(0) translate(0 -13) translate(0 0) translate(-64.57421875 0)"><rect width="129.148" height="26" x="0" y="0" stroke="none" rx="5" ry="5"/><text x="5" y="17.5" fill="#000" stroke="none" font-family="sans-serif" font-size="16" font-weight="normal" text-anchor="left" xml:space="preserve">EnterpriseCAFor</text></g></g></g></g><g class="relationship"><g stroke="#68ccca" stroke-width="5" transform="translate(326.6622528543699 4) scale(1) translate(-44.95912785436991 327.97628342478527) rotate(43.78861262620303)"><path d="M 59 0 L 247.61865829661255 0"/><polygon fill="#68ccca" stroke="none" points="-24.862 0 -27.625 9.208 0 0 -27.625 -9.208" transform="translate(272.48080891436086 0) rotate(0)"/></g><g><g><g fill="#fff" stroke="#000" stroke-width="0" transform="translate(326.6622528543699 4) scale(1) translate(65.71453579616153 434.0662951038908) rotate(43.78861262620303) translate(0 -13) translate(0 0) translate(-67.25390625 0)"><rect width="134.508" height="26" x="0" y="0" stroke="none" rx="5" ry="5"/><text x="5" y="17.5" fill="#000" stroke="none" font-family="sans-serif" font-size="16" font-weight="normal" text-anchor="left" xml:space="preserve">EnrollOnBehalfOf</text></g></g></g></g><g class="relationship"><g stroke="#000" stroke-width="5" transform="translate(326.6622528543699 4) scale(1) translate(433.6313891898351 796.6561663822652) rotate(-90)"><path d="M 59 0 L 212.28261323598704 0"/><polygon fill="#000" stroke="none" points="-24.862 0 -27.625 9.208 0 0 -27.625 -9.208" transform="translate(237.14476385373536 0) rotate(0)"/></g><g><g><g fill="#fff" stroke="#000" stroke-width="0" transform="translate(326.6622528543699 4) scale(1) translate(433.6313891898351 661.0148597642717) rotate(90) translate(0 -13) translate(0 0) translate(-48.5859375 0)"><rect width="97.172" height="26" x="0" y="0" stroke="none" rx="5" ry="5"/><text x="5" y="17.5" fill="#000" stroke="none" font-family="sans-serif" font-size="16" font-weight="normal" text-anchor="left" xml:space="preserve">PublishedTo</text></g></g></g></g><g class="relationship"><g stroke="#000" stroke-width="5" transform="translate(326.6622528543699 4) scale(1) translate(433.6313891898351 500.5114025285298) rotate(-35.45095495632252)"><path d="M 59 0 L 213.6091860485213 0"/><polygon fill="#000" stroke="none" points="-24.862 0 -27.625 9.208 0 0 -27.625 -9.208" transform="translate(238.47133666626962 0) rotate(0)"/></g><g><g><g fill="#fff" stroke="#000" stroke-width="0" transform="translate(326.6622528543699 4) scale(1) translate(544.6667872556458 421.45393952928924) rotate(-35.45095495632252) translate(0 -13) translate(0 0) translate(-64.57421875 0)"><rect width="129.148" height="26" x="0" y="0" stroke="none" rx="5" ry="5"/><text x="5" y="17.5" fill="#000" stroke="none" font-family="sans-serif" font-size="16" font-weight="normal" text-anchor="left" xml:space="preserve">EnterpriseCAFor</text></g></g></g></g><g class="relationship"><g stroke="#68ccca" stroke-width="5" transform="translate(326.6622528543699 4) scale(1) translate(194.3361306677326 557.3609078601627) rotate(90)"><path d="M 58.695178092152055 -5.989663490593892 L 95.96898050729241 -9.793341079425122 A 40 40 0 0 1 100.0297693144747 -10 L 118 -10 L 226 -10 A 10 10 0 0 1 236 -1.7763568394002505e-15 L 236 0 L 236 1.7763568394002505e-15 A 10 10 0 0 1 226 10 L 118 10 L 100.0297693144747 10 A 40 40 0 0 0 95.96898050729241 9.793341079425122 L 83.42887907965451 8.513662064369711 L 83.42887907965451 8.513662064369711"/><polygon fill="#68ccca" stroke="none" points="-24.862 0 -27.625 9.208 0 0 -27.625 -9.208" transform="rotate(185.8266894420084) translate(-59 0)"/></g><g><g><g fill="#fff" stroke="#000" stroke-width="0" transform="translate(326.6622528543699 4) scale(1) translate(194.3361306677326 783.3609078601627) rotate(360) translate(0 -13) translate(0 0) translate(-67.25390625 0)"><rect width="134.508" height="26" x="0" y="0" stroke="none" rx="5" ry="5"/><text x="5" y="17.5" fill="#000" stroke="none" font-family="sans-serif" font-size="16" font-weight="normal" text-anchor="left" xml:space="preserve">EnrollOnBehalfOf</text></g></g></g></g><g class="node"><g fill="#68ccca" stroke="#000" stroke-width="4" transform="translate(326.6622528543699 4) scale(1)"><circle cx="675.955" cy="50" r="52"/></g><g><g><g><g fill="#000" font-family="sans-serif" font-size="50" font-weight="normal" text-anchor="middle"><text x="0" y="13" stroke="none" transform="translate(326.6622528543699 4) scale(1) translate(675.9551990267428 50) scale(0.4296880703125) translate(0 0) translate(0 0)" xml:space="preserve">Domain1</text></g></g></g></g></g><g class="node"><g fill="#fda1ff" stroke="#000" stroke-width="4" transform="translate(326.6622528543699 4) scale(1)"><circle cx="-44.959" cy="327.976" r="52"/></g><g><g><g><g fill="#000" font-family="sans-serif" font-size="50" font-weight="normal" text-anchor="middle"><text x="0" y="13" stroke="none" transform="translate(326.6622528543699 4) scale(1) translate(-44.95912785436991 327.97628342478527) scale(0.24023513476562502) translate(0 0) translate(0 0)" xml:space="preserve">CertTemplate1-1</text></g></g></g><g><g><g fill="#fff" transform="translate(326.6622528543699 4) scale(1) translate(-44.95912785436991 327.97628342478527) translate(-56 -19.199999999999992) translate(0 0) translate(-225.703125 0)"><rect width="225.703" height="38.4" x="0" y="0" stroke="none" rx="0" ry="0"/><g fill="#000" font-family="sans-serif" font-size="16" font-weight="normal" text-anchor="end"><text x="116.492" y="14.1" stroke="none" xml:space="preserve">schemaversion:</text><text x="120.938" y="14.1" stroke="none" text-anchor="start" xml:space="preserve">2</text><text x="116.492" y="33.3" stroke="none" text-anchor="end" xml:space="preserve">effectiveekus:</text><text x="120.938" y="33.3" stroke="none" text-anchor="start" xml:space="preserve">[&quot;2.5.29.37.0&quot;]</text></g></g></g></g></g></g><g class="node"><g fill="#7b64ff" stroke="#000" stroke-width="4" transform="translate(326.6622528543699 4) scale(1)"><circle cx="433.631" cy="50" r="52"/></g><g><g><g><g fill="#000" font-family="sans-serif" font-size="50" font-weight="normal" text-anchor="middle"><text x="0" y="13" stroke="none" transform="translate(326.6622528543699 4) scale(1) translate(433.6313891898351 50) scale(0.28125071874999996) translate(0 0) translate(0 0)" xml:space="preserve">NTAuthStore1</text></g></g></g></g></g><g class="node"><g fill="#b0bc00" stroke="#000" stroke-width="4" transform="translate(326.6622528543699 4) scale(1)"><circle cx="433.631" cy="327.976" r="52"/></g><g><g><g><g fill="#000" font-family="sans-serif" font-size="50" font-weight="normal" text-anchor="middle"><text x="0" y="13" stroke="none" transform="translate(326.6622528543699 4) scale(1) translate(433.6313891898351 327.97628342478527) scale(0.27148510351562494) translate(0 0) translate(0 0)" xml:space="preserve">EnterpriseCA1</text></g></g></g></g></g><g class="node"><g fill="#fda1ff" stroke="#000" stroke-width="4" transform="translate(326.6622528543699 4) scale(1)"><circle cx="194.336" cy="557.361" r="52"/></g><g><g><g><g fill="#000" font-family="sans-serif" font-size="50" font-weight="normal" text-anchor="middle"><text x="0" y="13" stroke="none" transform="translate(326.6622528543699 4) scale(1) translate(194.3361306677326 557.3609078601627) scale(0.24023513476562502) translate(0 0) translate(0 0)" xml:space="preserve">CertTemplate1-2</text></g></g></g><g><g><g fill="#fff" transform="translate(326.6622528543699 4) scale(1) translate(194.3361306677326 557.3609078601627) translate(3.429011037612589e-15 56) translate(0 0) translate(-112.8515625 0)"><rect width="225.703" height="38.4" x="0" y="0" stroke="none" rx="0" ry="0"/><g fill="#000" font-family="sans-serif" font-size="16" font-weight="normal" text-anchor="end"><text x="116.492" y="14.1" stroke="none" xml:space="preserve">schemaversion:</text><text x="120.938" y="14.1" stroke="none" text-anchor="start" xml:space="preserve">1</text><text x="116.492" y="33.3" stroke="none" text-anchor="end" xml:space="preserve">effectiveekus:</text><text x="120.938" y="33.3" stroke="none" text-anchor="start" xml:space="preserve">[&quot;2.5.29.37.0&quot;]</text></g></g></g></g></g></g><g class="node"><g fill="#fda1ff" stroke="#000" stroke-width="4" transform="translate(326.6622528543699 4) scale(1)"><circle cx="433.631" cy="796.656" r="52"/></g><g><g><g><g fill="#000" font-family="sans-serif" font-size="50" font-weight="normal" text-anchor="middle"><text x="0" y="13" stroke="none" transform="translate(326.6622528543699 4) scale(1) translate(433.6313891898351 796.6561663822652) scale(0.24023513476562502) translate(0 0) translate(0 0)" xml:space="preserve">CertTemplate1-3</text></g></g></g><g><g><g fill="#fff" transform="translate(326.6622528543699 4) scale(1) translate(433.6313891898351 796.6561663822652) translate(3.429011037612589e-15 56) translate(0 0) translate(-112.8515625 0)"><rect width="225.703" height="38.4" x="0" y="0" stroke="none" rx="0" ry="0"/><g fill="#000" font-family="sans-serif" font-size="16" font-weight="normal" text-anchor="end"><text x="116.492" y="14.1" stroke="none" xml:space="preserve">schemaversion:</text><text x="120.938" y="14.1" stroke="none" text-anchor="start" xml:space="preserve">2</text><text x="116.492" y="33.3" stroke="none" text-anchor="end" xml:space="preserve">effectiveekus:</text><text x="120.938" y="33.3" stroke="none" text-anchor="start" xml:space="preserve">[&quot;2.5.29.37.0&quot;]</text></g></g></g></g></g></g><g class="node"><g fill="#e27300" stroke="#000" stroke-width="4" transform="translate(326.6622528543699 4) scale(1)"><circle cx="675.955" cy="327.976" r="52"/></g><g><g><g><g fill="#000" font-family="sans-serif" font-size="50" font-weight="normal" text-anchor="middle"><text x="0" y="13" stroke="none" transform="translate(326.6622528543699 4) scale(1) translate(675.9551990267428 327.97628342478527) scale(0.421875578125) translate(0 0) translate(0 0)" xml:space="preserve">RootCA1</text></g></g></g></g></g><g class="node"><g fill="#b0bc00" stroke="#000" stroke-width="4" transform="translate(326.6622528543699 4) scale(1)"><circle cx="433.631" cy="500.511" r="52"/></g><g><g><g><g fill="#000" font-family="sans-serif" font-size="50" font-weight="normal" text-anchor="middle"><text x="0" y="13" stroke="none" transform="translate(326.6622528543699 4) scale(1) translate(433.6313891898351 500.5114025285298) scale(0.27148510351562494) translate(0 0) translate(0 0)" xml:space="preserve">EnterpriseCA2</text></g></g></g></g></g></g></svg>