<svg xmlns="http://www.w3.org/2000/svg" width="921" height="845" viewBox="0 0 921 845"><defs><style type="text/css"/></defs><g><g class="relationship"><g stroke="#000" stroke-width="5" transform="translate(190.30110474644664 4) scale(1) translate(433.6313891898351 50) rotate(0)"><path d="M 59 0 L 158.4616592191594 0"/><polygon fill="#000" stroke="none" points="-24.862 0 -27.625 9.208 0 0 -27.625 -9.208" transform="translate(183.32380983690769 0) rotate(0)"/></g><g><g><g fill="#fff" stroke="#000" stroke-width="0" transform="translate(190.30110474644664 4) scale(1) translate(542.3622187994148 50) rotate(0) translate(0 -13) translate(0 0) translate(-62.6484375 0)"><rect width="125.297" height="26" x="0" y="0" stroke="none" rx="5" ry="5"/><text x="5" y="17.5" fill="#000" stroke="none" font-family="sans-serif" font-size="16" font-weight="normal" text-anchor="left" xml:space="preserve">NTAuthStoreFor</text></g></g></g></g><g class="relationship"><g stroke="#000" stroke-width="5" transform="translate(190.30110474644664 4) scale(1) translate(433.6313891898351 327.97628342478527) rotate(-90)"><path d="M 59 0 L 194.11413280703695 0"/><polygon fill="#000" stroke="none" points="-24.862 0 -27.625 9.208 0 0 -27.625 -9.208" transform="translate(218.97628342478527 0) rotate(0)"/></g><g><g><g fill="#fff" stroke="#000" stroke-width="0" transform="translate(190.30110474644664 4) scale(1) translate(433.6313891898351 201.41921702126677) rotate(90) translate(0 -13) translate(0 0) translate(-70.3515625 0)"><rect width="140.703" height="26" x="0" y="0" stroke="none" rx="5" ry="5"/><text x="5" y="17.5" fill="#000" stroke="none" font-family="sans-serif" font-size="16" font-weight="normal" text-anchor="left" xml:space="preserve">TrustedForNTAuth</text></g></g></g></g><g class="relationship"><g stroke="#000" stroke-width="5" transform="translate(190.30110474644664 4) scale(1) translate(75 327.97628342478527) rotate(0)"><path d="M 59 0 L 274.7692385720868 0"/><polygon fill="#000" stroke="none" points="-24.862 0 -27.625 9.208 0 0 -27.625 -9.208" transform="translate(299.6313891898351 0) rotate(0)"/></g><g><g><g fill="#fff" stroke="#000" stroke-width="0" transform="translate(190.30110474644664 4) scale(1) translate(241.8846192860434 327.97628342478527) rotate(0) translate(0 -13) translate(0 0) translate(-48.5859375 0)"><rect width="97.172" height="26" x="0" y="0" stroke="none" rx="5" ry="5"/><text x="5" y="17.5" fill="#000" stroke="none" font-family="sans-serif" font-size="16" font-weight="normal" text-anchor="left" xml:space="preserve">PublishedTo</text></g></g></g></g><g class="relationship"><g stroke="#000" stroke-width="5" transform="translate(190.30110474644664 4) scale(1) translate(176.03558347937087 605.9525668495705) rotate(-47.179262552307804)"><path d="M 59 0 L 295.11860518164553 0"/><polygon fill="#000" stroke="none" points="-24.862 0 -27.625 9.208 0 0 -27.625 -9.208" transform="translate(319.9807557993938 0) rotate(0)"/></g><g><g><g fill="#fff" stroke="#000" stroke-width="0" transform="translate(190.30110474644664 4) scale(1) translate(296.3839996231144 476.0824187567895) rotate(-47.179262552307804) translate(0 -13) translate(0 0) translate(-48.5859375 0)"><rect width="97.172" height="26" x="0" y="0" stroke="none" rx="5" ry="5"/><text x="5" y="17.5" fill="#000" stroke="none" font-family="sans-serif" font-size="16" font-weight="normal" text-anchor="left" xml:space="preserve">PublishedTo</text></g></g></g></g><g class="relationship"><g stroke="#000" stroke-width="5" transform="translate(190.30110474644664 4) scale(1) translate(454.01086036954564 605.2045130499298) rotate(-94.20433793162489)"><path d="M 59 0 L 194.1141328070369 0"/><polygon fill="#000" stroke="none" points="-24.862 0 -27.625 9.208 0 0 -27.625 -9.208" transform="translate(218.9762834247852 0) rotate(0)"/></g><g><g><g fill="#fff" stroke="#000" stroke-width="0" transform="translate(190.30110474644664 4) scale(1) translate(444.7324929650218 478.9880206451286) rotate(85.7956620683751) translate(0 -13) translate(0 0) translate(-48.5859375 0)"><rect width="97.172" height="26" x="0" y="0" stroke="none" rx="5" ry="5"/><text x="5" y="17.5" fill="#000" stroke="none" font-family="sans-serif" font-size="16" font-weight="normal" text-anchor="left" xml:space="preserve">PublishedTo</text></g></g></g></g><g class="relationship"><g stroke="#000" stroke-width="5" transform="translate(190.30110474644664 4) scale(1) translate(675.9551990267428 327.97628342478527) rotate(-90)"><path d="M 59 0 L 194.11413280703695 0"/><polygon fill="#000" stroke="none" points="-24.862 0 -27.625 9.208 0 0 -27.625 -9.208" transform="translate(218.97628342478527 0) rotate(0)"/></g><g><g><g fill="#fff" stroke="#000" stroke-width="0" transform="translate(190.30110474644664 4) scale(1) translate(675.9551990267428 201.41921702126677) rotate(90) translate(0 -13) translate(0 0) translate(-45.01171875 0)"><rect width="90.023" height="26" x="0" y="0" stroke="none" rx="5" ry="5"/><text x="5" y="17.5" fill="#000" stroke="none" font-family="sans-serif" font-size="16" font-weight="normal" text-anchor="left" xml:space="preserve">RootCAFor</text></g></g></g></g><g class="relationship"><g stroke="#000" stroke-width="5" transform="translate(190.30110474644664 4) scale(1) translate(433.6313891898351 327.97628342478527) rotate(0)"><path d="M 59 0 L 158.4616592191594 0"/><polygon fill="#000" stroke="none" points="-24.862 0 -27.625 9.208 0 0 -27.625 -9.208" transform="translate(183.32380983690769 0) rotate(0)"/></g><g><g><g fill="#fff" stroke="#000" stroke-width="0" transform="translate(190.30110474644664 4) scale(1) translate(542.3622187994148 327.97628342478527) rotate(0) translate(0 -13) translate(0 0) translate(-64.57421875 0)"><rect width="129.148" height="26" x="0" y="0" stroke="none" rx="5" ry="5"/><text x="5" y="17.5" fill="#000" stroke="none" font-family="sans-serif" font-size="16" font-weight="normal" text-anchor="left" xml:space="preserve">EnterpriseCAFor</text></g></g></g></g><g class="relationship"><g stroke="#68ccca" stroke-width="5" transform="translate(190.30110474644664 4) scale(1) translate(75 327.97628342478527) rotate(70.02539571192277)"><path d="M 59 0 L 211.90634546605278 0"/><polygon fill="#68ccca" stroke="none" points="-24.862 0 -27.625 9.208 0 0 -27.625 -9.208" transform="translate(236.7684960838011 0) rotate(0)"/></g><g><g><g fill="#fff" stroke="#000" stroke-width="0" transform="translate(190.30110474644664 4) scale(1) translate(121.27129164336606 455.2811520398451) rotate(70.02539571192277) translate(0 -13) translate(0 0) translate(-67.25390625 0)"><rect width="134.508" height="26" x="0" y="0" stroke="none" rx="5" ry="5"/><text x="5" y="17.5" fill="#000" stroke="none" font-family="sans-serif" font-size="16" font-weight="normal" text-anchor="left" xml:space="preserve">EnrollOnBehalfOf</text></g></g></g></g><g class="relationship"><g stroke="#68ccca" stroke-width="5" transform="translate(190.30110474644664 4) scale(1) translate(454.01086036954564 605.2045130499298) rotate(179.84581282700933)"><path d="M 59 0 L 194.11413280703684 0"/><polygon fill="#68ccca" stroke="none" points="-24.862 0 -27.625 9.208 0 0 -27.625 -9.208" transform="translate(218.97628342478515 0) rotate(0)"/></g><g><g><g fill="#fff" stroke="#000" stroke-width="0" transform="translate(190.30110474644664 4) scale(1) translate(327.45425222119184 605.545087048647) rotate(359.84581282700935) translate(0 -13) translate(0 0) translate(-67.25390625 0)"><rect width="134.508" height="26" x="0" y="0" stroke="none" rx="5" ry="5"/><text x="5" y="17.5" fill="#000" stroke="none" font-family="sans-serif" font-size="16" font-weight="normal" text-anchor="left" xml:space="preserve">EnrollOnBehalfOf</text></g></g></g></g><g class="relationship"><g stroke="#68ccca" stroke-width="5" transform="translate(190.30110474644664 4) scale(1) translate(176.03558347937087 605.9525668495705) rotate(124.93560426946605)"><path d="M 58.695178092152055 -5.989663490593892 L 95.96898050729241 -9.793341079425122 A 40 40 0 0 1 100.0297693144747 -10 L 118 -10 L 226 -10 A 10 10 0 0 1 236 -1.7763568394002505e-15 L 236 0 L 236 1.7763568394002505e-15 A 10 10 0 0 1 226 10 L 118 10 L 100.0297693144747 10 A 40 40 0 0 0 95.96898050729241 9.793341079425122 L 83.42887907965451 8.513662064369711 L 83.42887907965451 8.513662064369711"/><polygon fill="#68ccca" stroke="none" points="-24.862 0 -27.625 9.208 0 0 -27.625 -9.208" transform="rotate(185.8266894420084) translate(-59 0)"/></g><g><g><g fill="#fff" stroke="#000" stroke-width="0" transform="translate(190.30110474644664 4) scale(1) translate(46.615459702719136 791.2265033912118) rotate(34.93560426946605) translate(0 -13) translate(0 0) translate(-67.25390625 0)"><rect width="134.508" height="26" x="0" y="0" stroke="none" rx="5" ry="5"/><text x="5" y="17.5" fill="#000" stroke="none" font-family="sans-serif" font-size="16" font-weight="normal" text-anchor="left" xml:space="preserve">EnrollOnBehalfOf</text></g></g></g></g><g class="node"><g fill="#68ccca" stroke="#000" stroke-width="4" transform="translate(190.30110474644664 4) scale(1)"><circle cx="675.955" cy="50" r="52"/></g><g><g><g><g fill="#000" font-family="sans-serif" font-size="50" font-weight="normal" text-anchor="middle"><text x="0" y="13" stroke="none" transform="translate(190.30110474644664 4) scale(1) translate(675.9551990267428 50) scale(0.4296880703125) translate(0 0) translate(0 0)" xml:space="preserve">Domain1</text></g></g></g></g></g><g class="node"><g fill="#fda1ff" stroke="#000" stroke-width="4" transform="translate(190.30110474644664 4) scale(1)"><circle cx="75" cy="327.976" r="52"/></g><g><g><g><g fill="#000" font-family="sans-serif" font-size="50" font-weight="normal" text-anchor="middle"><text x="0" y="13" stroke="none" transform="translate(190.30110474644664 4) scale(1) translate(75 327.97628342478527) scale(0.24023513476562502) translate(0 0) translate(0 0)" xml:space="preserve">CertTemplate1-1</text></g></g></g><g><g><g fill="#fff" transform="translate(190.30110474644664 4) scale(1) translate(75 327.97628342478527) translate(-39.597979746446654 -77.99797974644666) translate(0 0) translate(-225.703125 0)"><rect width="225.703" height="38.4" x="0" y="0" stroke="none" rx="0" ry="0"/><g fill="#000" font-family="sans-serif" font-size="16" font-weight="normal" text-anchor="end"><text x="116.492" y="14.1" stroke="none" xml:space="preserve">schemaversion:</text><text x="120.938" y="14.1" stroke="none" text-anchor="start" xml:space="preserve">2</text><text x="116.492" y="33.3" stroke="none" text-anchor="end" xml:space="preserve">effectiveekus:</text><text x="120.938" y="33.3" stroke="none" text-anchor="start" xml:space="preserve">[&quot;2.5.29.37.0&quot;]</text></g></g></g></g></g></g><g class="node"><g fill="#7b64ff" stroke="#000" stroke-width="4" transform="translate(190.30110474644664 4) scale(1)"><circle cx="433.631" cy="50" r="52"/></g><g><g><g><g fill="#000" font-family="sans-serif" font-size="50" font-weight="normal" text-anchor="middle"><text x="0" y="13" stroke="none" transform="translate(190.30110474644664 4) scale(1) translate(433.6313891898351 50) scale(0.28125071874999996) translate(0 0) translate(0 0)" xml:space="preserve">NTAuthStore1</text></g></g></g></g></g><g class="node"><g fill="#b0bc00" stroke="#000" stroke-width="4" transform="translate(190.30110474644664 4) scale(1)"><circle cx="433.631" cy="327.976" r="52"/></g><g><g><g><g fill="#000" font-family="sans-serif" font-size="50" font-weight="normal" text-anchor="middle"><text x="0" y="13" stroke="none" transform="translate(190.30110474644664 4) scale(1) translate(433.6313891898351 327.97628342478527) scale(0.27148510351562494) translate(0 0) translate(0 0)" xml:space="preserve">EnterpriseCA1</text></g></g></g></g></g><g class="node"><g fill="#fda1ff" stroke="#000" stroke-width="4" transform="translate(190.30110474644664 4) scale(1)"><circle cx="176.036" cy="605.953" r="52"/></g><g><g><g><g fill="#000" font-family="sans-serif" font-size="50" font-weight="normal" text-anchor="middle"><text x="0" y="13" stroke="none" transform="translate(190.30110474644664 4) scale(1) translate(176.03558347937087 605.9525668495705) scale(0.24023513476562502) translate(0 0) translate(0 0)" xml:space="preserve">CertTemplate1-2</text></g></g></g><g><g><g fill="#fff" transform="translate(190.30110474644664 4) scale(1) translate(176.03558347937087 605.9525668495705) translate(-39.597979746446654 39.59797974644666) translate(0 0) translate(-225.703125 0)"><rect width="225.703" height="38.4" x="0" y="0" stroke="none" rx="0" ry="0"/><g fill="#000" font-family="sans-serif" font-size="16" font-weight="normal" text-anchor="end"><text x="116.492" y="14.1" stroke="none" xml:space="preserve">schemaversion:</text><text x="120.938" y="14.1" stroke="none" text-anchor="start" xml:space="preserve">1</text><text x="116.492" y="33.3" stroke="none" text-anchor="end" xml:space="preserve">effectiveekus:</text><text x="120.938" y="33.3" stroke="none" text-anchor="start" xml:space="preserve">[&quot;2.5.29.37.0&quot;]</text></g></g></g></g></g></g><g class="node"><g fill="#fda1ff" stroke="#000" stroke-width="4" transform="translate(190.30110474644664 4) scale(1)"><circle cx="454.011" cy="605.205" r="52"/></g><g><g><g><g fill="#000" font-family="sans-serif" font-size="50" font-weight="normal" text-anchor="middle"><text x="0" y="13" stroke="none" transform="translate(190.30110474644664 4) scale(1) translate(454.01086036954564 605.2045130499298) scale(0.24023513476562502) translate(0 0) translate(0 0)" xml:space="preserve">CertTemplate1-3</text></g></g></g><g><g><g fill="#fff" transform="translate(190.30110474644664 4) scale(1) translate(454.01086036954564 605.2045130499298) translate(39.59797974644666 39.597979746446654) translate(0 0) translate(0 0)"><rect width="225.703" height="38.4" x="0" y="0" stroke="none" rx="0" ry="0"/><g fill="#000" font-family="sans-serif" font-size="16" font-weight="normal" text-anchor="end"><text x="116.492" y="14.1" stroke="none" xml:space="preserve">schemaversion:</text><text x="120.938" y="14.1" stroke="none" text-anchor="start" xml:space="preserve">2</text><text x="116.492" y="33.3" stroke="none" text-anchor="end" xml:space="preserve">effectiveekus:</text><text x="120.938" y="33.3" stroke="none" text-anchor="start" xml:space="preserve">[&quot;2.5.29.37.0&quot;]</text></g></g></g></g></g></g><g class="node"><g fill="#e27300" stroke="#000" stroke-width="4" transform="translate(190.30110474644664 4) scale(1)"><circle cx="675.955" cy="327.976" r="52"/></g><g><g><g><g fill="#000" font-family="sans-serif" font-size="50" font-weight="normal" text-anchor="middle"><text x="0" y="13" stroke="none" transform="translate(190.30110474644664 4) scale(1) translate(675.9551990267428 327.97628342478527) scale(0.421875578125) translate(0 0) translate(0 0)" xml:space="preserve">RootCA1</text></g></g></g></g></g></g></svg>