<svg xmlns="http://www.w3.org/2000/svg" width="2871" height="1521" viewBox="0 0 2871 1521"><defs><style type="text/css"/></defs><g><g class="relationship"><g stroke="#000" stroke-width="5" transform="translate(-21 4) scale(1) translate(2573.1710649298893 257.1802421969478) rotate(180)"><path d="M 59 0 L 2414.308914312141 0"/><polygon fill="#000" stroke="none" points="-24.862 0 -27.625 9.208 0 0 -27.625 -9.208" transform="translate(2439.1710649298893 0) rotate(0)"/></g><g><g><g fill="#fff" stroke="#000" stroke-width="0" transform="translate(-21 4) scale(1) translate(1336.5166077738188 257.180242196948) rotate(360) translate(0 -13) translate(0 0) translate(-45.01171875 0)"><rect width="90.023" height="26" x="0" y="0" stroke="none" rx="5" ry="5"/><text x="5" y="17.5" fill="#000" stroke="none" font-family="sans-serif" font-size="16" font-weight="normal" text-anchor="left" xml:space="preserve">RootCAFor</text></g></g></g></g><g class="relationship"><g stroke="#000" stroke-width="5" transform="translate(-21 4) scale(1) translate(2102.666999575045 1457.287121322109) rotate(-68.59224787802488)"><path d="M 59 0 L 1205.1803610314873 0"/><polygon fill="#000" stroke="none" points="-24.862 0 -27.625 9.208 0 0 -27.625 -9.208" transform="translate(1230.0425116492356 0) rotate(0)"/></g><g><g><g fill="#fff" stroke="#000" stroke-width="0" transform="translate(-21 4) scale(1) translate(2333.3816555432427 868.8070929219077) rotate(-68.59224787802488) translate(0 -13) translate(0 0) translate(-62.81640625 0)"><rect width="125.633" height="26" x="0" y="0" stroke="none" rx="5" ry="5"/><text x="5" y="17.5" fill="#000" stroke="none" font-family="sans-serif" font-size="16" font-weight="normal" text-anchor="left" xml:space="preserve">IssuedSignedBy</text></g></g></g></g><g class="relationship"><g stroke="#000" stroke-width="5" transform="translate(-21 4) scale(1) translate(2573.1710649298893 464.3604843938954) rotate(-175.25915146673609)"><path d="M 59 0 L 2422.885208493202 0"/><polygon fill="#000" stroke="none" points="-24.862 0 -27.625 9.208 0 0 -27.625 -9.208" transform="translate(2447.74735911095 0) rotate(0)"/></g><g><g><g fill="#fff" stroke="#000" stroke-width="0" transform="translate(-21 4) scale(1) translate(1336.474077536997 361.79777963392894) rotate(4.7408485332639145) translate(0 -13) translate(0 0) translate(-62.6484375 0)"><rect width="125.297" height="26" x="0" y="0" stroke="none" rx="5" ry="5"/><text x="5" y="17.5" fill="#000" stroke="none" font-family="sans-serif" font-size="16" font-weight="normal" text-anchor="left" xml:space="preserve">NTAuthStoreFor</text></g></g></g></g><g class="relationship"><g stroke="#000" stroke-width="5" transform="translate(-21 4) scale(1) translate(2102.666999575045 1457.287121322109) rotate(-64.64579399411173)"><path d="M 59 0 L 1014.8995987333149 0"/><polygon fill="#000" stroke="none" points="-24.862 0 -27.625 9.208 0 0 -27.625 -9.208" transform="translate(1039.7617493510631 0) rotate(0)"/></g><g><g><g fill="#fff" stroke="#000" stroke-width="0" transform="translate(-21 4) scale(1) translate(2332.595884196929 972.0574900582817) rotate(-64.64579399411173) translate(0 -13) translate(0 0) translate(-70.3515625 0)"><rect width="140.703" height="26" x="0" y="0" stroke="none" rx="5" ry="5"/><text x="5" y="17.5" fill="#000" stroke="none" font-family="sans-serif" font-size="16" font-weight="normal" text-anchor="left" xml:space="preserve">TrustedForNTAuth</text></g></g></g></g><g class="relationship"><g stroke="#000" stroke-width="5" transform="translate(-21 4) scale(1) translate(2573.1710649298893 50) rotate(175.25915146673609)"><path d="M 59 0 L 2422.885208493202 0"/><polygon fill="#000" stroke="none" points="-24.862 0 -27.625 9.208 0 0 -27.625 -9.208" transform="translate(2447.74735911095 0) rotate(0)"/></g><g><g><g fill="#fff" stroke="#000" stroke-width="0" transform="translate(-21 4) scale(1) translate(1336.474077536997 152.56270475996644) rotate(355.2591514667361) translate(0 -13) translate(0 0) translate(-28.5546875 0)"><rect width="57.109" height="26" x="0" y="0" stroke="none" rx="5" ry="5"/><text x="5" y="17.5" fill="#000" stroke="none" font-family="sans-serif" font-size="16" font-weight="normal" text-anchor="left" xml:space="preserve">DCFor</text></g></g></g></g><g class="relationship"><g stroke="#000" stroke-width="5" transform="translate(-21 4) scale(1) translate(75 1457.2871213221085) rotate(1.2849794347893275e-14)"><path d="M 59 0 L 1943.8048489572966 0"/><polygon fill="#000" stroke="none" points="-24.862 0 -27.625 9.208 0 0 -27.625 -9.208" transform="translate(1968.6669995750449 0) rotate(0)"/></g><g><g><g fill="#fff" stroke="#000" stroke-width="0" transform="translate(-21 4) scale(1) translate(1076.4024244786483 1457.2871213221088) rotate(1.2849794347893275e-14) translate(0 -13) translate(0 0) translate(-25.453125 0)"><rect width="50.906" height="26" x="0" y="0" stroke="none" rx="5" ry="5"/><text x="5" y="17.5" fill="#000" stroke="none" font-family="sans-serif" font-size="16" font-weight="normal" text-anchor="left" xml:space="preserve">Enroll</text></g></g></g></g><g class="relationship"><g stroke="#000" stroke-width="5" transform="translate(-21 4) scale(1) translate(1868.8112082366765 1184.155079844971) rotate(49.42984517439848)"><path d="M 59 0 L 275.70653993242115 0"/><polygon fill="#000" stroke="none" points="-24.862 0 -27.625 9.208 0 0 -27.625 -9.208" transform="translate(300.5686905501695 0) rotate(0)"/></g><g><g><g fill="#fff" stroke="#000" stroke-width="0" transform="translate(-21 4) scale(1) translate(1977.654198212054 1311.278329101758) rotate(49.42984517439848) translate(0 -13) translate(0 0) translate(-48.5859375 0)"><rect width="97.172" height="26" x="0" y="0" stroke="none" rx="5" ry="5"/><text x="5" y="17.5" fill="#000" stroke="none" font-family="sans-serif" font-size="16" font-weight="normal" text-anchor="left" xml:space="preserve">PublishedTo</text></g></g></g></g><g class="relationship"><g stroke="#000" stroke-width="5" transform="translate(-21 4) scale(1) translate(986.9652328869672 1262.1602710882041) rotate(-5.055038856791692)"><path d="M 59 0 L 801.4271433993958 0"/><polygon fill="#000" stroke="none" points="-24.862 0 -27.625 9.208 0 0 -27.625 -9.208" transform="translate(826.2892940171441 0) rotate(0)"/></g><g><g><g fill="#fff" stroke="#000" stroke-width="0" transform="translate(-21 4) scale(1) translate(1415.5054957231914 1224.2530105320639) rotate(-5.055038856791692) translate(0 -13) translate(0 0) translate(-25.453125 0)"><rect width="50.906" height="26" x="0" y="0" stroke="none" rx="5" ry="5"/><text x="5" y="17.5" fill="#000" stroke="none" font-family="sans-serif" font-size="16" font-weight="normal" text-anchor="left" xml:space="preserve">Enroll</text></g></g></g></g><g class="relationship"><g stroke="#000" stroke-width="5" transform="translate(-21 4) scale(1) translate(986.9652328869672 1262.1602710882041) rotate(167.922920505386)"><path d="M 59 0 L 848.7444511585767 0"/><polygon fill="#000" stroke="none" points="-24.862 0 -27.625 9.208 0 0 -27.625 -9.208" transform="translate(873.606601776325 0) rotate(0)"/></g><g><g><g fill="#fff" stroke="#000" stroke-width="0" transform="translate(-21 4) scale(1) translate(543.1385549361985 1357.1227746961074) rotate(347.92292050538595) translate(0 -13) translate(0 0) translate(-42.78515625 0)"><rect width="85.57" height="26" x="0" y="0" stroke="none" rx="5" ry="5"/><text x="5" y="17.5" fill="#000" stroke="none" font-family="sans-serif" font-size="16" font-weight="normal" text-anchor="left" xml:space="preserve">MemberOf</text></g></g></g></g><g class="relationship"><g stroke="#000" stroke-width="5" transform="translate(-21 4) scale(1) translate(1868.8112082366765 901.2730340471282) rotate(67.18870485170643)"><path d="M 59 0 L 519.3295240518582 0"/><polygon fill="#000" stroke="none" points="-24.862 0 -27.625 9.208 0 0 -27.625 -9.208" transform="translate(544.1916746696065 0) rotate(0)"/></g><g><g><g fill="#fff" stroke="#000" stroke-width="0" transform="translate(-21 4) scale(1) translate(1980.9196094141041 1167.8212773033035) rotate(67.18870485170643) translate(0 -13) translate(0 0) translate(-48.5859375 0)"><rect width="97.172" height="26" x="0" y="0" stroke="none" rx="5" ry="5"/><text x="5" y="17.5" fill="#000" stroke="none" font-family="sans-serif" font-size="16" font-weight="normal" text-anchor="left" xml:space="preserve">PublishedTo</text></g></g></g></g><g class="relationship"><g stroke="#000" stroke-width="5" transform="translate(-21 4) scale(1) translate(1868.8112082366765 608.9262182883624) rotate(74.58881003534243)"><path d="M 59 0 L 796.1405499114766 0"/><polygon fill="#000" stroke="none" points="-24.862 0 -27.625 9.208 0 0 -27.625 -9.208" transform="translate(821.0027005292249 0) rotate(0)"/></g><g><g><g fill="#fff" stroke="#000" stroke-width="0" transform="translate(-21 4) scale(1) translate(1982.4356152327064 1021.1225721787459) rotate(74.58881003534243) translate(0 -13) translate(0 0) translate(-48.5859375 0)"><rect width="97.172" height="26" x="0" y="0" stroke="none" rx="5" ry="5"/><text x="5" y="17.5" fill="#000" stroke="none" font-family="sans-serif" font-size="16" font-weight="normal" text-anchor="left" xml:space="preserve">PublishedTo</text></g></g></g></g><g class="relationship"><g stroke="#000" stroke-width="5" transform="translate(-21 4) scale(1) translate(896.7434236266986 1184.155079844971) rotate(0)"><path d="M 59 0 L 888.2056339922297 0"/><polygon fill="#000" stroke="none" points="-24.862 0 -27.625 9.208 0 0 -27.625 -9.208" transform="translate(913.0677846099779 0) rotate(0)"/></g><g><g><g fill="#fff" stroke="#000" stroke-width="0" transform="translate(-21 4) scale(1) translate(1370.3462406228134 1184.155079844971) rotate(0) translate(0 -13) translate(0 0) translate(-25.453125 0)"><rect width="50.906" height="26" x="0" y="0" stroke="none" rx="5" ry="5"/><text x="5" y="17.5" fill="#000" stroke="none" font-family="sans-serif" font-size="16" font-weight="normal" text-anchor="left" xml:space="preserve">Enroll</text></g></g></g></g><g class="relationship"><g stroke="#000" stroke-width="5" transform="translate(-21 4) scale(1) translate(896.7434236266986 1184.155079844971) rotate(161.6141645846053)"><path d="M 59 0 L 782.0843641019522 0"/><polygon fill="#000" stroke="none" points="-24.862 0 -27.625 9.208 0 0 -27.625 -9.208" transform="translate(806.9465147197005 0) rotate(0)"/></g><g><g><g fill="#fff" stroke="#000" stroke-width="0" transform="translate(-21 4) scale(1) translate(497.6682306629946 1316.8001598335584) rotate(341.6141645846053) translate(0 -13) translate(0 0) translate(-42.78515625 0)"><rect width="85.57" height="26" x="0" y="0" stroke="none" rx="5" ry="5"/><text x="5" y="17.5" fill="#000" stroke="none" font-family="sans-serif" font-size="16" font-weight="normal" text-anchor="left" xml:space="preserve">MemberOf</text></g></g></g></g><g class="relationship"><g stroke="#000" stroke-width="5" transform="translate(-21 4) scale(1) translate(986.9652328869672 1106.1498886017378) rotate(5.055038856791692)"><path d="M 59 0 L 801.4271433993958 0"/><polygon fill="#000" stroke="none" points="-24.862 0 -27.625 9.208 0 0 -27.625 -9.208" transform="translate(826.2892940171441 0) rotate(0)"/></g><g><g><g fill="#fff" stroke="#000" stroke-width="0" transform="translate(-21 4) scale(1) translate(1415.5054957231914 1144.057149157878) rotate(5.055038856791692) translate(0 -13) translate(0 0) translate(-25.453125 0)"><rect width="50.906" height="26" x="0" y="0" stroke="none" rx="5" ry="5"/><text x="5" y="17.5" fill="#000" stroke="none" font-family="sans-serif" font-size="16" font-weight="normal" text-anchor="left" xml:space="preserve">Enroll</text></g></g></g></g><g class="relationship"><g stroke="#000" stroke-width="5" transform="translate(-21 4) scale(1) translate(986.9652328869672 1106.1498886017378) rotate(158.94161911882895)"><path d="M 59 0 L 893.3675778479284 0"/><polygon fill="#000" stroke="none" points="-24.862 0 -27.625 9.208 0 0 -27.625 -9.208" transform="translate(918.2297284656767 0) rotate(0)"/></g><g><g><g fill="#fff" stroke="#000" stroke-width="0" transform="translate(-21 4) scale(1) translate(542.5834797398677 1277.2517831087616) rotate(338.941619118829) translate(0 -13) translate(0 0) translate(-42.78515625 0)"><rect width="85.57" height="26" x="0" y="0" stroke="none" rx="5" ry="5"/><text x="5" y="17.5" fill="#000" stroke="none" font-family="sans-serif" font-size="16" font-weight="normal" text-anchor="left" xml:space="preserve">MemberOf</text></g></g></g></g><g class="relationship"><g stroke="#000" stroke-width="5" transform="translate(-21 4) scale(1) translate(986.9652328869672 979.2782252903614) rotate(152.33860471323402)"><path d="M 59 0 L 945.7849203148455 0"/><polygon fill="#000" stroke="none" points="-24.862 0 -27.625 9.208 0 0 -27.625 -9.208" transform="translate(970.6470709325938 0) rotate(0)"/></g><g><g><g fill="#fff" stroke="#000" stroke-width="0" transform="translate(-21 4) scale(1) translate(541.9929022094836 1212.5116040217854) rotate(332.338604713234) translate(0 -13) translate(0 0) translate(-42.78515625 0)"><rect width="85.57" height="26" x="0" y="0" stroke="none" rx="5" ry="5"/><text x="5" y="17.5" fill="#000" stroke="none" font-family="sans-serif" font-size="16" font-weight="normal" text-anchor="left" xml:space="preserve">MemberOf</text></g></g></g></g><g class="relationship"><g stroke="#000" stroke-width="5" transform="translate(-21 4) scale(1) translate(896.7434236266986 901.2730340471282) rotate(145.9166426002915)"><path d="M 59 0 L 908.314204433085 0"/><polygon fill="#000" stroke="none" points="-24.862 0 -27.625 9.208 0 0 -27.625 -9.208" transform="translate(933.1763550508333 0) rotate(0)"/></g><g><g><g fill="#fff" stroke="#000" stroke-width="0" transform="translate(-21 4) scale(1) translate(496.1674161321165 1172.3137224025918) rotate(325.91664260029154) translate(0 -13) translate(0 0) translate(-42.78515625 0)"><rect width="85.57" height="26" x="0" y="0" stroke="none" rx="5" ry="5"/><text x="5" y="17.5" fill="#000" stroke="none" font-family="sans-serif" font-size="16" font-weight="normal" text-anchor="left" xml:space="preserve">MemberOf</text></g></g></g></g><g class="relationship"><g stroke="#000" stroke-width="5" transform="translate(-21 4) scale(1) translate(986.9652328869672 823.2678428038948) rotate(145.19208180997617)"><path d="M 59 0 L 1026.8407941552168 0"/><polygon fill="#000" stroke="none" points="-24.862 0 -27.625 9.208 0 0 -27.625 -9.208" transform="translate(1051.702944772965 0) rotate(0)"/></g><g><g><g fill="#fff" stroke="#000" stroke-width="0" transform="translate(-21 4) scale(1) translate(541.1894035438908 1133.1814880930308) rotate(325.1920818099762) translate(0 -13) translate(0 0) translate(-42.78515625 0)"><rect width="85.57" height="26" x="0" y="0" stroke="none" rx="5" ry="5"/><text x="5" y="17.5" fill="#000" stroke="none" font-family="sans-serif" font-size="16" font-weight="normal" text-anchor="left" xml:space="preserve">MemberOf</text></g></g></g></g><g class="relationship"><g stroke="#000" stroke-width="5" transform="translate(-21 4) scale(1) translate(986.9652328869672 823.2678428038948) rotate(5.0550388567917075)"><path d="M 59 0 L 801.4271433993958 0"/><polygon fill="#000" stroke="none" points="-24.862 0 -27.625 9.208 0 0 -27.625 -9.208" transform="translate(826.2892940171441 0) rotate(0)"/></g><g><g><g fill="#fff" stroke="#000" stroke-width="0" transform="translate(-21 4) scale(1) translate(1415.5054957231914 861.1751033600352) rotate(5.0550388567917075) translate(0 -13) translate(0 0) translate(-25.453125 0)"><rect width="50.906" height="26" x="0" y="0" stroke="none" rx="5" ry="5"/><text x="5" y="17.5" fill="#000" stroke="none" font-family="sans-serif" font-size="16" font-weight="normal" text-anchor="left" xml:space="preserve">Enroll</text></g></g></g></g><g class="relationship"><g stroke="#000" stroke-width="5" transform="translate(-21 4) scale(1) translate(896.7434236266986 901.2730340471282) rotate(0)"><path d="M 59 0 L 888.2056339922297 0"/><polygon fill="#000" stroke="none" points="-24.862 0 -27.625 9.208 0 0 -27.625 -9.208" transform="translate(913.0677846099779 0) rotate(0)"/></g><g><g><g fill="#fff" stroke="#000" stroke-width="0" transform="translate(-21 4) scale(1) translate(1370.3462406228134 901.2730340471282) rotate(0) translate(0 -13) translate(0 0) translate(-25.453125 0)"><rect width="50.906" height="26" x="0" y="0" stroke="none" rx="5" ry="5"/><text x="5" y="17.5" fill="#000" stroke="none" font-family="sans-serif" font-size="16" font-weight="normal" text-anchor="left" xml:space="preserve">Enroll</text></g></g></g></g><g class="relationship"><g stroke="#000" stroke-width="5" transform="translate(-21 4) scale(1) translate(986.9652328869672 979.2782252903614) rotate(-5.055038856791692)"><path d="M 59 0 L 801.4271433993958 0"/><polygon fill="#000" stroke="none" points="-24.862 0 -27.625 9.208 0 0 -27.625 -9.208" transform="translate(826.2892940171441 0) rotate(0)"/></g><g><g><g fill="#fff" stroke="#000" stroke-width="0" transform="translate(-21 4) scale(1) translate(1415.5054957231914 941.3709647342212) rotate(-5.055038856791692) translate(0 -13) translate(0 0) translate(-25.453125 0)"><rect width="50.906" height="26" x="0" y="0" stroke="none" rx="5" ry="5"/><text x="5" y="17.5" fill="#000" stroke="none" font-family="sans-serif" font-size="16" font-weight="normal" text-anchor="left" xml:space="preserve">Enroll</text></g></g></g></g><g class="relationship"><g stroke="#000" stroke-width="5" transform="translate(-21 4) scale(1) translate(986.9652328869672 686.9314095315956) rotate(139.81153497407175)"><path d="M 59 0 L 1109.925313164163 0"/><polygon fill="#000" stroke="none" points="-24.862 0 -27.625 9.208 0 0 -27.625 -9.208" transform="translate(1134.7874637819114 0) rotate(0)"/></g><g><g><g fill="#fff" stroke="#000" stroke-width="0" transform="translate(-21 4) scale(1) translate(540.4790375678756 1064.0874439901022) rotate(319.8115349740717) translate(0 -13) translate(0 0) translate(-42.78515625 0)"><rect width="85.57" height="26" x="0" y="0" stroke="none" rx="5" ry="5"/><text x="5" y="17.5" fill="#000" stroke="none" font-family="sans-serif" font-size="16" font-weight="normal" text-anchor="left" xml:space="preserve">MemberOf</text></g></g></g></g><g class="relationship"><g stroke="#000" stroke-width="5" transform="translate(-21 4) scale(1) translate(896.7434236266986 608.9262182883624) rotate(134.08691924195455)"><path d="M 59 0 L 1097.2299186427142 0"/><polygon fill="#000" stroke="none" points="-24.862 0 -27.625 9.208 0 0 -27.625 -9.208" transform="translate(1122.0920692604625 0) rotate(0)"/></g><g><g><g fill="#fff" stroke="#000" stroke-width="0" transform="translate(-21 4) scale(1) translate(494.52061789742083 1024.177612918654) rotate(314.0869192419545) translate(0 -13) translate(0 0) translate(-42.78515625 0)"><rect width="85.57" height="26" x="0" y="0" stroke="none" rx="5" ry="5"/><text x="5" y="17.5" fill="#000" stroke="none" font-family="sans-serif" font-size="16" font-weight="normal" text-anchor="left" xml:space="preserve">MemberOf</text></g></g></g></g><g class="relationship"><g stroke="#000" stroke-width="5" transform="translate(-21 4) scale(1) translate(986.9652328869672 530.9210270451292) rotate(134.55117356186076)"><path d="M 59 0 L 1216.0742811436535 0"/><polygon fill="#000" stroke="none" points="-24.862 0 -27.625 9.208 0 0 -27.625 -9.208" transform="translate(1240.9364317614018 0) rotate(0)"/></g><g><g><g fill="#fff" stroke="#000" stroke-width="0" transform="translate(-21 4) scale(1) translate(539.7035878787805 985.2453897124551) rotate(314.55117356186076) translate(0 -13) translate(0 0) translate(-42.78515625 0)"><rect width="85.57" height="26" x="0" y="0" stroke="none" rx="5" ry="5"/><text x="5" y="17.5" fill="#000" stroke="none" font-family="sans-serif" font-size="16" font-weight="normal" text-anchor="left" xml:space="preserve">MemberOf</text></g></g></g></g><g class="relationship"><g stroke="#000" stroke-width="5" transform="translate(-21 4) scale(1) translate(986.9652328869672 686.9314095315956) rotate(-5.055038856791692)"><path d="M 59 0 L 801.4271433993958 0"/><polygon fill="#000" stroke="none" points="-24.862 0 -27.625 9.208 0 0 -27.625 -9.208" transform="translate(826.2892940171441 0) rotate(0)"/></g><g><g><g fill="#fff" stroke="#000" stroke-width="0" transform="translate(-21 4) scale(1) translate(1415.5054957231914 649.0241489754553) rotate(-5.055038856791692) translate(0 -13) translate(0 0) translate(-25.453125 0)"><rect width="50.906" height="26" x="0" y="0" stroke="none" rx="5" ry="5"/><text x="5" y="17.5" fill="#000" stroke="none" font-family="sans-serif" font-size="16" font-weight="normal" text-anchor="left" xml:space="preserve">Enroll</text></g></g></g></g><g class="relationship"><g stroke="#000" stroke-width="5" transform="translate(-21 4) scale(1) translate(896.7434236266986 608.9262182883624) rotate(0)"><path d="M 59 0 L 888.2056339922297 0"/><polygon fill="#000" stroke="none" points="-24.862 0 -27.625 9.208 0 0 -27.625 -9.208" transform="translate(913.0677846099779 0) rotate(0)"/></g><g><g><g fill="#fff" stroke="#000" stroke-width="0" transform="translate(-21 4) scale(1) translate(1370.3462406228134 608.9262182883624) rotate(0) translate(0 -13) translate(0 0) translate(-25.453125 0)"><rect width="50.906" height="26" x="0" y="0" stroke="none" rx="5" ry="5"/><text x="5" y="17.5" fill="#000" stroke="none" font-family="sans-serif" font-size="16" font-weight="normal" text-anchor="left" xml:space="preserve">Enroll</text></g></g></g></g><g class="relationship"><g stroke="#000" stroke-width="5" transform="translate(-21 4) scale(1) translate(986.9652328869672 530.9210270451292) rotate(5.055038856791692)"><path d="M 59 0 L 801.4271433993958 0"/><polygon fill="#000" stroke="none" points="-24.862 0 -27.625 9.208 0 0 -27.625 -9.208" transform="translate(826.2892940171441 0) rotate(0)"/></g><g><g><g fill="#fff" stroke="#000" stroke-width="0" transform="translate(-21 4) scale(1) translate(1415.5054957231914 568.8282876012695) rotate(5.055038856791692) translate(0 -13) translate(0 0) translate(-25.453125 0)"><rect width="50.906" height="26" x="0" y="0" stroke="none" rx="5" ry="5"/><text x="5" y="17.5" fill="#000" stroke="none" font-family="sans-serif" font-size="16" font-weight="normal" text-anchor="left" xml:space="preserve">Enroll</text></g></g></g></g><g class="relationship"><g stroke="#000" stroke-width="5" transform="translate(-21 4) scale(1) translate(896.7434236266986 608.9262182883624) rotate(-156.82673042269764)"><path d="M 59 0 L 809.99884862667 0"/><polygon fill="#000" stroke="none" points="-24.862 0 -27.625 9.208 0 0 -27.625 -9.208" transform="translate(834.8609992444183 0) rotate(0)"/></g><g><g><g fill="#fff" stroke="#000" stroke-width="0" transform="translate(-21 4) scale(1) translate(497.29983586430393 437.94502071352474) rotate(23.173269577302364) translate(0 -13) translate(0 0) translate(-52.57421875 0)"><rect width="105.148" height="26" x="0" y="0" stroke="none" rx="5" ry="5"/><text x="5" y="17.5" fill="#000" stroke="none" font-family="sans-serif" font-size="16" font-weight="normal" text-anchor="left" xml:space="preserve">ADCSESC6b</text></g></g></g></g><g class="relationship"><g stroke="#000" stroke-width="5" transform="translate(-21 4) scale(1) translate(986.9652328869672 686.9314095315956) rotate(-154.76848227975884)"><path d="M 59 0 L 924.2879631153568 0"/><polygon fill="#000" stroke="none" points="-24.862 0 -27.625 9.208 0 0 -27.625 -9.208" transform="translate(949.1501137331051 0) rotate(0)"/></g><g><g><g fill="#fff" stroke="#000" stroke-width="0" transform="translate(-21 4) scale(1) translate(542.227676414874 477.3549068765542) rotate(25.231517720241136) translate(0 -13) translate(0 0) translate(-52.57421875 0)"><rect width="105.148" height="26" x="0" y="0" stroke="none" rx="5" ry="5"/><text x="5" y="17.5" fill="#000" stroke="none" font-family="sans-serif" font-size="16" font-weight="normal" text-anchor="left" xml:space="preserve">ADCSESC6b</text></g></g></g></g><g class="relationship"><g stroke="#000" stroke-width="5" transform="translate(-21 4) scale(1) translate(896.7434236266986 901.2730340471282) rotate(-141.9102068661739)"><path d="M 59 0 L 960.2249045587287 0"/><polygon fill="#000" stroke="none" points="-24.862 0 -27.625 9.208 0 0 -27.625 -9.208" transform="translate(985.087055176477 0) rotate(0)"/></g><g><g><g fill="#fff" stroke="#000" stroke-width="0" transform="translate(-21 4) scale(1) translate(495.6555266140692 586.8953147536424) rotate(38.089793133826106) translate(0 -13) translate(0 0) translate(-52.57421875 0)"><rect width="105.148" height="26" x="0" y="0" stroke="none" rx="5" ry="5"/><text x="5" y="17.5" fill="#000" stroke="none" font-family="sans-serif" font-size="16" font-weight="normal" text-anchor="left" xml:space="preserve">ADCSESC6b</text></g></g></g></g><g class="relationship"><g stroke="#000" stroke-width="5" transform="translate(-21 4) scale(1) translate(986.9652328869672 979.2782252903614) rotate(-141.62766769007817)"><path d="M 59 0 L 1079.3687306702943 0"/><polygon fill="#000" stroke="none" points="-24.862 0 -27.625 9.208 0 0 -27.625 -9.208" transform="translate(1104.2308812880426 0) rotate(0)"/></g><g><g><g fill="#fff" stroke="#000" stroke-width="0" transform="translate(-21 4) scale(1) translate(540.7284963641918 625.9460632678853) rotate(38.372332309921816) translate(0 -13) translate(0 0) translate(-52.57421875 0)"><rect width="105.148" height="26" x="0" y="0" stroke="none" rx="5" ry="5"/><text x="5" y="17.5" fill="#000" stroke="none" font-family="sans-serif" font-size="16" font-weight="normal" text-anchor="left" xml:space="preserve">ADCSESC6b</text></g></g></g></g><g class="relationship"><g stroke="#000" stroke-width="5" transform="translate(-21 4) scale(1) translate(986.9652328869672 1106.1498886017378) rotate(-137.0488223187352)"><path d="M 59 0 L 1162.1033571356784 0"/><polygon fill="#000" stroke="none" points="-24.862 0 -27.625 9.208 0 0 -27.625 -9.208" transform="translate(1186.9655077534267 0) rotate(0)"/></g><g><g><g fill="#fff" stroke="#000" stroke-width="0" transform="translate(-21 4) scale(1) translate(540.0813502515598 690.1352883258468) rotate(42.95117768126481) translate(0 -13) translate(0 0) translate(-52.57421875 0)"><rect width="105.148" height="26" x="0" y="0" stroke="none" rx="5" ry="5"/><text x="5" y="17.5" fill="#000" stroke="none" font-family="sans-serif" font-size="16" font-weight="normal" text-anchor="left" xml:space="preserve">ADCSESC6b</text></g></g></g></g><g class="relationship"><g stroke="#000" stroke-width="5" transform="translate(-21 4) scale(1) translate(896.7434236266986 1184.155079844971) rotate(-131.55630410127813)"><path d="M 59 0 L 1154.9052221792215 0"/><polygon fill="#000" stroke="none" points="-24.862 0 -27.625 9.208 0 0 -27.625 -9.208" transform="translate(1179.7673727969698 0) rotate(0)"/></g><g><g><g fill="#fff" stroke="#000" stroke-width="0" transform="translate(-21 4) scale(1) translate(494.117936736606 729.969886983059) rotate(48.44369589872187) translate(0 -13) translate(0 0) translate(-52.57421875 0)"><rect width="105.148" height="26" x="0" y="0" stroke="none" rx="5" ry="5"/><text x="5" y="17.5" fill="#000" stroke="none" font-family="sans-serif" font-size="16" font-weight="normal" text-anchor="left" xml:space="preserve">ADCSESC6b</text></g></g></g></g><g class="relationship"><g stroke="#000" stroke-width="5" transform="translate(-21 4) scale(1) translate(986.9652328869672 1262.1602710882041) rotate(-132.2220497227376)"><path d="M 59 0 L 1273.217598131326 0"/><polygon fill="#000" stroke="none" points="-24.862 0 -27.625 9.208 0 0 -27.625 -9.208" transform="translate(1298.0797487490743 0) rotate(0)"/></g><g><g><g fill="#fff" stroke="#000" stroke-width="0" transform="translate(-21 4) scale(1) translate(539.3363690505378 768.8760401896207) rotate(47.77795027726238) translate(0 -13) translate(0 0) translate(-52.57421875 0)"><rect width="105.148" height="26" x="0" y="0" stroke="none" rx="5" ry="5"/><text x="5" y="17.5" fill="#000" stroke="none" font-family="sans-serif" font-size="16" font-weight="normal" text-anchor="left" xml:space="preserve">ADCSESC6b</text></g></g></g></g><g class="node"><g fill="#68ccca" stroke="#000" stroke-width="4" transform="translate(-21 4) scale(1)"><circle cx="75" cy="257.18" r="52"/></g><g><g><g><g fill="#000" font-family="sans-serif" font-size="50" font-weight="normal" text-anchor="middle"><text x="0" y="13" stroke="none" transform="translate(-21 4) scale(1) translate(75 257.1802421969478) scale(0.49218800781249994) translate(0 0) translate(0 0)" xml:space="preserve">Domain</text></g></g></g></g></g><g class="node"><g fill="#653294" stroke="#000" stroke-width="4" transform="translate(-21 4) scale(1)"><circle cx="2573.171" cy="464.36" r="52"/></g><g><g><g><g fill="#fff" font-family="sans-serif" font-size="50" font-weight="normal" text-anchor="middle"><text x="0" y="13" stroke="none" transform="translate(-21 4) scale(1) translate(2573.1710649298893 464.3604843938954) scale(0.30859444140625003) translate(0 0) translate(0 0)" xml:space="preserve">NTAuthStore</text></g></g></g></g></g><g class="node"><g fill="#653294" stroke="#000" stroke-width="4" transform="translate(-21 4) scale(1)"><circle cx="2573.171" cy="257.18" r="52"/></g><g><g><g><g fill="#fff" font-family="sans-serif" font-size="50" font-weight="normal" text-anchor="middle"><text x="0" y="13" stroke="none" transform="translate(-21 4) scale(1) translate(2573.1710649298893 257.1802421969478) scale(0.484375515625) translate(0 0) translate(0 0)" xml:space="preserve">RootCA</text></g></g></g></g></g><g class="node"><g fill="#194d33" stroke="#000" stroke-width="4" transform="translate(-21 4) scale(1)"><circle cx="2102.667" cy="1457.287" r="52"/></g><g><g><g><g fill="#fff" font-family="sans-serif" font-size="50" font-weight="normal" text-anchor="middle"><text x="0" y="13" stroke="none" transform="translate(-21 4) scale(1) translate(2102.666999575045 1457.287121322109) scale(0.294922580078125) translate(0 0) translate(0 0)" xml:space="preserve">EnterpriseCA</text></g></g></g><g><g><g fill="#fff" transform="translate(-21 4) scale(1) translate(2102.666999575045 1457.287121322109) translate(39.59797974644666 39.597979746446654) translate(0 0) translate(0 0)"><rect width="248.422" height="19.2" x="0" y="0" stroke="none" rx="0" ry="0"/><g fill="#000" font-family="sans-serif" font-size="16" font-weight="normal" text-anchor="end"><text x="207.227" y="14.1" stroke="none" xml:space="preserve">IsUserSpecifiesSanEnabled:</text><text x="211.672" y="14.1" stroke="none" text-anchor="start" xml:space="preserve">True</text></g></g></g></g></g></g><g class="node"><g fill="#f44e3b" stroke="#000" stroke-width="4" transform="translate(-21 4) scale(1)"><circle cx="2573.171" cy="50" r="52"/></g><g><g><g><g fill="#000" font-family="sans-serif" font-size="50" font-weight="normal" text-anchor="middle"><text x="0" y="13" stroke="none" transform="translate(-21 4) scale(1) translate(2573.1710649298893 50) scale(0.9531250468750001) translate(0 0) translate(0 0)" xml:space="preserve">DC</text></g></g></g><g><g><g fill="#fff" transform="translate(-21 4) scale(1) translate(2573.1710649298893 50) translate(56 -9.6) translate(0 0) translate(0 0)"><rect width="262.352" height="19.2" x="0" y="0" stroke="none" rx="0" ry="0"/><g fill="#000" font-family="sans-serif" font-size="16" font-weight="normal" text-anchor="end"><text x="235.664" y="14.1" stroke="none" xml:space="preserve">CertificateMappingMethodsRaw:</text><text x="240.109" y="14.1" stroke="none" text-anchor="start" xml:space="preserve">31</text></g></g></g></g></g></g><g class="node"><g fill="#fcc400" stroke="#000" stroke-width="4" transform="translate(-21 4) scale(1)"><circle cx="75" cy="1457.287" r="52"/></g><g><g><g><g fill="#000" font-family="sans-serif" font-size="50" font-weight="normal" text-anchor="middle"><text x="0" y="13" stroke="none" transform="translate(-21 4) scale(1) translate(75 1457.2871213221085) scale(0.5039067460937499) translate(0 0) translate(0 0)" xml:space="preserve">Group0</text></g></g></g></g></g><g class="node"><g fill="#fda1ff" stroke="#000" stroke-width="4" transform="translate(-21 4) scale(1)"><circle cx="1868.811" cy="1184.155" r="52"/></g><g><g><g><g fill="#000" font-family="sans-serif" font-size="50" font-weight="normal" text-anchor="middle"><text x="0" y="13" stroke="none" transform="translate(-21 4) scale(1) translate(1868.8112082366765 1184.155079844971) scale(0.27148510351562494) translate(0 0) translate(0 0)" xml:space="preserve">CertTemplate1</text></g></g></g><g><g><g fill="#fff" transform="translate(-21 4) scale(1) translate(1868.8112082366765 1184.155079844971) translate(-104 -67.19999999999999) translate(0 0) translate(-273.890625 0)"><rect width="273.891" height="134.4" x="0" y="0" stroke="none" rx="0" ry="0"/><g fill="#000" font-family="sans-serif" font-size="16" font-weight="normal" text-anchor="end"><text x="225.875" y="14.1" stroke="none" xml:space="preserve">SchannelAuthenticationEnabled:</text><text x="230.32" y="14.1" stroke="none" text-anchor="start" xml:space="preserve">True</text><text x="225.875" y="33.3" stroke="none" text-anchor="end" xml:space="preserve">RequireManagerApproval:</text><text x="230.32" y="33.3" stroke="none" text-anchor="start" xml:space="preserve">False</text><text x="225.875" y="52.5" stroke="none" text-anchor="end" xml:space="preserve">SchemaVersion:</text><text x="230.32" y="52.5" stroke="none" text-anchor="start" xml:space="preserve">1</text><text x="225.875" y="71.7" stroke="none" text-anchor="end" xml:space="preserve">SubjectAltRequireDNS:</text><text x="230.32" y="71.7" stroke="none" text-anchor="start" xml:space="preserve">False</text><text x="225.875" y="90.9" stroke="none" text-anchor="end" xml:space="preserve">SubjectAltRequireDomainDNS:</text><text x="230.32" y="90.9" stroke="none" text-anchor="start" xml:space="preserve">False</text><text x="225.875" y="110.1" stroke="none" text-anchor="end" xml:space="preserve">SubjectAltRequireEmail:</text><text x="230.32" y="110.1" stroke="none" text-anchor="start" xml:space="preserve">False</text><text x="225.875" y="129.3" stroke="none" text-anchor="end" xml:space="preserve">SubjectRequireEmail:</text><text x="230.32" y="129.3" stroke="none" text-anchor="start" xml:space="preserve">False</text></g></g></g></g></g></g><g class="node"><g fill="#fcc400" stroke="#000" stroke-width="4" transform="translate(-21 4) scale(1)"><circle cx="986.965" cy="1262.16" r="52"/></g><g><g><g><g fill="#000" font-family="sans-serif" font-size="50" font-weight="normal" text-anchor="middle"><text x="0" y="13" stroke="none" transform="translate(-21 4) scale(1) translate(986.9652328869672 1262.1602710882041) scale(0.5039067460937499) translate(0 0) translate(0 0)" xml:space="preserve">Group1</text></g></g></g></g></g><g class="node"><g fill="#fda1ff" stroke="#000" stroke-width="4" transform="translate(-21 4) scale(1)"><circle cx="1868.811" cy="901.273" r="52"/></g><g><g><g><g fill="#000" font-family="sans-serif" font-size="50" font-weight="normal" text-anchor="middle"><text x="0" y="13" stroke="none" transform="translate(-21 4) scale(1) translate(1868.8112082366765 901.2730340471282) scale(0.27148510351562494) translate(0 0) translate(0 0)" xml:space="preserve">CertTemplate2</text></g></g></g><g><g><g fill="#fff" transform="translate(-21 4) scale(1) translate(1868.8112082366765 901.2730340471282) translate(-104 -67.19999999999999) translate(0 0) translate(-273.890625 0)"><rect width="273.891" height="134.4" x="0" y="0" stroke="none" rx="0" ry="0"/><g fill="#000" font-family="sans-serif" font-size="16" font-weight="normal" text-anchor="end"><text x="225.875" y="14.1" stroke="none" xml:space="preserve">SchannelAuthenticationEnabled:</text><text x="230.32" y="14.1" stroke="none" text-anchor="start" xml:space="preserve">True</text><text x="225.875" y="33.3" stroke="none" text-anchor="end" xml:space="preserve">RequireManagerApproval:</text><text x="230.32" y="33.3" stroke="none" text-anchor="start" xml:space="preserve">False</text><text x="225.875" y="52.5" stroke="none" text-anchor="end" xml:space="preserve">SchemaVersion:</text><text x="230.32" y="52.5" stroke="none" text-anchor="start" xml:space="preserve">1</text><text x="225.875" y="71.7" stroke="none" text-anchor="end" xml:space="preserve">SubjectAltRequireDNS:</text><text x="230.32" y="71.7" stroke="none" text-anchor="start" xml:space="preserve">True</text><text x="225.875" y="90.9" stroke="none" text-anchor="end" xml:space="preserve">SubjectAltRequireDomainDNS:</text><text x="230.32" y="90.9" stroke="none" text-anchor="start" xml:space="preserve">False</text><text x="225.875" y="110.1" stroke="none" text-anchor="end" xml:space="preserve">SubjectAltRequireEmail:</text><text x="230.32" y="110.1" stroke="none" text-anchor="start" xml:space="preserve">False</text><text x="225.875" y="129.3" stroke="none" text-anchor="end" xml:space="preserve">SubjectRequireEmail:</text><text x="230.32" y="129.3" stroke="none" text-anchor="start" xml:space="preserve">False</text></g></g></g></g></g></g><g class="node"><g fill="#fda1ff" stroke="#000" stroke-width="4" transform="translate(-21 4) scale(1)"><circle cx="1868.811" cy="608.926" r="52"/></g><g><g><g><g fill="#000" font-family="sans-serif" font-size="50" font-weight="normal" text-anchor="middle"><text x="0" y="13" stroke="none" transform="translate(-21 4) scale(1) translate(1868.8112082366765 608.9262182883624) scale(0.27148510351562494) translate(0 0) translate(0 0)" xml:space="preserve">CertTemplate3</text></g></g></g><g><g><g fill="#fff" transform="translate(-21 4) scale(1) translate(1868.8112082366765 608.9262182883624) translate(-104 -67.19999999999999) translate(0 0) translate(-273.890625 0)"><rect width="273.891" height="134.4" x="0" y="0" stroke="none" rx="0" ry="0"/><g fill="#000" font-family="sans-serif" font-size="16" font-weight="normal" text-anchor="end"><text x="225.875" y="14.1" stroke="none" xml:space="preserve">SchannelAuthenticationEnabled:</text><text x="230.32" y="14.1" stroke="none" text-anchor="start" xml:space="preserve">True</text><text x="225.875" y="33.3" stroke="none" text-anchor="end" xml:space="preserve">RequireManagerApproval:</text><text x="230.32" y="33.3" stroke="none" text-anchor="start" xml:space="preserve">False</text><text x="225.875" y="52.5" stroke="none" text-anchor="end" xml:space="preserve">SchemaVersion:</text><text x="230.32" y="52.5" stroke="none" text-anchor="start" xml:space="preserve">1</text><text x="225.875" y="71.7" stroke="none" text-anchor="end" xml:space="preserve">SubjectAltRequireDNS:</text><text x="230.32" y="71.7" stroke="none" text-anchor="start" xml:space="preserve">False</text><text x="225.875" y="90.9" stroke="none" text-anchor="end" xml:space="preserve">SubjectAltRequireDomainDNS:</text><text x="230.32" y="90.9" stroke="none" text-anchor="start" xml:space="preserve">True</text><text x="225.875" y="110.1" stroke="none" text-anchor="end" xml:space="preserve">SubjectAltRequireEmail:</text><text x="230.32" y="110.1" stroke="none" text-anchor="start" xml:space="preserve">False</text><text x="225.875" y="129.3" stroke="none" text-anchor="end" xml:space="preserve">SubjectRequireEmail:</text><text x="230.32" y="129.3" stroke="none" text-anchor="start" xml:space="preserve">False</text></g></g></g></g></g></g><g class="node"><g fill="#f44e3b" stroke="#000" stroke-width="4" transform="translate(-21 4) scale(1)"><circle cx="896.743" cy="1184.155" r="52"/></g><g><g><g><g fill="#000" font-family="sans-serif" font-size="50" font-weight="normal" text-anchor="middle"><text x="0" y="13" stroke="none" transform="translate(-21 4) scale(1) translate(896.7434236266986 1184.155079844971) scale(0.35351627148437503) translate(0 0) translate(0 0)" xml:space="preserve">Computer1</text></g></g></g></g></g><g class="node"><g fill="#a4dd00" stroke="#000" stroke-width="4" transform="translate(-21 4) scale(1)"><circle cx="986.965" cy="1106.15" r="52"/></g><g><g><g><g fill="#000" font-family="sans-serif" font-size="50" font-weight="normal" text-anchor="middle"><text x="0" y="13" stroke="none" transform="translate(-21 4) scale(1) translate(986.9652328869672 1106.1498886017378) scale(0.6132816367187499) translate(0 0) translate(0 0)" xml:space="preserve">User1</text></g></g></g></g></g><g class="node"><g fill="#fcc400" stroke="#000" stroke-width="4" transform="translate(-21 4) scale(1)"><circle cx="986.965" cy="979.278" r="52"/></g><g><g><g><g fill="#000" font-family="sans-serif" font-size="50" font-weight="normal" text-anchor="middle"><text x="0" y="13" stroke="none" transform="translate(-21 4) scale(1) translate(986.9652328869672 979.2782252903614) scale(0.5039067460937499) translate(0 0) translate(0 0)" xml:space="preserve">Group2</text></g></g></g></g></g><g class="node"><g fill="#f44e3b" stroke="#000" stroke-width="4" transform="translate(-21 4) scale(1)"><circle cx="896.743" cy="901.273" r="52"/></g><g><g><g><g fill="#000" font-family="sans-serif" font-size="50" font-weight="normal" text-anchor="middle"><text x="0" y="13" stroke="none" transform="translate(-21 4) scale(1) translate(896.7434236266986 901.2730340471282) scale(0.35351627148437503) translate(0 0) translate(0 0)" xml:space="preserve">Computer2</text></g></g></g></g></g><g class="node"><g fill="#a4dd00" stroke="#73d8ff" stroke-width="4" transform="translate(-21 4) scale(1)"><circle cx="986.965" cy="823.268" r="52"/></g><g><g><g><g fill="#000" font-family="sans-serif" font-size="50" font-weight="normal" text-anchor="middle"><text x="0" y="13" stroke="none" transform="translate(-21 4) scale(1) translate(986.9652328869672 823.2678428038948) scale(0.6132816367187499) translate(0 0) translate(0 0)" xml:space="preserve">User2</text></g></g></g></g></g><g class="node"><g fill="#fcc400" stroke="#000" stroke-width="4" transform="translate(-21 4) scale(1)"><circle cx="986.965" cy="686.931" r="52"/></g><g><g><g><g fill="#000" font-family="sans-serif" font-size="50" font-weight="normal" text-anchor="middle"><text x="0" y="13" stroke="none" transform="translate(-21 4) scale(1) translate(986.9652328869672 686.9314095315956) scale(0.5039067460937499) translate(0 0) translate(0 0)" xml:space="preserve">Group3</text></g></g></g></g></g><g class="node"><g fill="#f44e3b" stroke="#000" stroke-width="4" transform="translate(-21 4) scale(1)"><circle cx="896.743" cy="608.926" r="52"/></g><g><g><g><g fill="#000" font-family="sans-serif" font-size="50" font-weight="normal" text-anchor="middle"><text x="0" y="13" stroke="none" transform="translate(-21 4) scale(1) translate(896.7434236266986 608.9262182883624) scale(0.35351627148437503) translate(0 0) translate(0 0)" xml:space="preserve">Computer3</text></g></g></g></g></g><g class="node"><g fill="#a4dd00" stroke="#73d8ff" stroke-width="4" transform="translate(-21 4) scale(1)"><circle cx="986.965" cy="530.921" r="52"/></g><g><g><g><g fill="#000" font-family="sans-serif" font-size="50" font-weight="normal" text-anchor="middle"><text x="0" y="13" stroke="none" transform="translate(-21 4) scale(1) translate(986.9652328869672 530.9210270451292) scale(0.6132816367187499) translate(0 0) translate(0 0)" xml:space="preserve">User3</text></g></g></g></g></g></g></svg>