<svg xmlns="http://www.w3.org/2000/svg" width="971" height="618" viewBox="0 0 971 618"><defs><style type="text/css"/></defs><g><g class="relationship"><g stroke="#000" stroke-width="5" transform="translate(707.8359375 379) scale(1) translate(-434 -325) rotate(90)"><path d="M 59 0 L 385.1378493822517 0"/><polygon fill="#000" stroke="none" points="-24.862 0 -27.625 9.208 0 0 -27.625 -9.208" transform="translate(410 0) rotate(0)"/></g><g><g><g fill="#fff" stroke="#000" stroke-width="0" transform="translate(707.8359375 379) scale(1) translate(-434 -102.93107530887414) rotate(270) translate(0 -13) translate(0 0) translate(-46.796875 0)"><rect width="93.594" height="26" x="0" y="0" stroke="none" rx="5" ry="5"/><text x="5" y="17.457" fill="#000" stroke="none" font-family="sans-serif" font-size="16" font-weight="normal" text-anchor="left" xml:space="preserve">AZContains</text></g></g></g></g><g class="node"><g fill="#fff" stroke="#000" stroke-width="4" transform="translate(707.8359375 379) scale(1)"><circle cx="-434" cy="-325" r="52"/></g><g><g><g><g fill="#000" font-family="sans-serif" font-size="50" font-weight="normal" text-anchor="middle"><text x="0" y="13.928" stroke="none" transform="translate(707.8359375 379) scale(1) translate(-434 -325) scale(0.40234434765624993) translate(0 0) translate(0 0)" xml:space="preserve">AZTenant</text></g></g></g></g></g><g class="node"><g fill="#fff" stroke="#000" stroke-width="4" transform="translate(707.8359375 379) scale(1)"><circle cx="-434" cy="144" r="52"/></g><g><g><g><g fill="#000" font-family="sans-serif" font-size="50" font-weight="normal" text-anchor="middle"><text x="0" y="13.928" stroke="none" transform="translate(707.8359375 379) scale(1) translate(-434 144) scale(0.5000005) translate(0 0) translate(0 0)" xml:space="preserve">AZUser</text></g></g></g><g><g><g fill="#fff" transform="translate(707.8359375 379) scale(1) translate(-434 144) translate(3.429011037612589e-15 56) translate(0 0) translate(-273.8359375 0)"><rect width="547.672" height="38.4" x="0" y="0" stroke="none" rx="0" ry="0"/><g fill="#000" font-family="sans-serif" font-size="16" font-weight="normal" text-anchor="end"><text x="162.75" y="14.057" stroke="none" xml:space="preserve">OnPremSyncEnabled:</text><text x="167.195" y="14.057" stroke="none" text-anchor="start" xml:space="preserve">true</text><text x="162.75" y="33.257" stroke="none" text-anchor="end" xml:space="preserve">OnPremID:</text><text x="167.195" y="33.257" stroke="none" text-anchor="start" xml:space="preserve">S-1-5-21-1988977465-3068077346-187953634-1104</text></g></g></g></g></g></g><g class="node"><g fill="#fff" stroke="#000" stroke-width="4" transform="translate(707.8359375 379) scale(1)"><circle cx="209" cy="-131" r="52"/></g><g><g><g><g fill="#000" font-family="sans-serif" font-size="50" font-weight="normal" text-anchor="middle"><text x="0" y="13.928" stroke="none" transform="translate(707.8359375 379) scale(1) translate(209 -131) scale(0.73828151171875) translate(0 0) translate(0 0)" xml:space="preserve">User</text></g></g></g><g><g><g fill="#fff" transform="translate(707.8359375 379) scale(1) translate(209 -131) translate(-39.597979746446654 -58.79797974644666) translate(0 0) translate(-456.0546875 0)"><rect width="456.055" height="19.2" x="0" y="0" stroke="none" rx="0" ry="0"/><g fill="#000" font-family="sans-serif" font-size="16" font-weight="normal" text-anchor="end"><text x="71.133" y="14.057" stroke="none" xml:space="preserve">ObjectID:</text><text x="75.578" y="14.057" stroke="none" text-anchor="start" xml:space="preserve">S-1-5-21-1988977465-3068077346-187953634-1104</text></g></g></g></g></g></g></g></svg>