<svg xmlns="http://www.w3.org/2000/svg" xmlns:svg="http://www.w3.org/2000/svg" id="svg248" height="682" contentStyleType="text/css" preserveAspectRatio="none" style="width:1192px;height:682px;background:#fff" width="1192" version="1.1" viewBox="0 0 1192 682" zoomAndPan="magnify"><g id="g246"><g id="cluster_user_env_a"><rect id="rect4" width="320" height="214" x="7" y="7" fill="none" rx="2.5" ry="2.5" style="stroke:#181818;stroke-width:1"/><text id="text6" x="85" y="22.132" fill="#000" font-family="sans-serif" font-size="14" font-weight="bold" lengthAdjust="spacing" textLength="164">Account Environment A</text></g><g id="cluster_user_env_b"><rect id="rect9" width="320" height="214" x="866" y="7" fill="none" rx="2.5" ry="2.5" style="stroke:#181818;stroke-width:1"/><text id="text11" x="943.5" y="22.132" fill="#000" font-family="sans-serif" font-size="14" font-weight="bold" lengthAdjust="spacing" textLength="165">Account Environment B</text></g><g id="cluster_AWS"><path id="path14" fill="none" d="M191.945,272.1783 C203.51,245.8553 224.4916,246.7483 240.8115,267.212 C251.3742,247.7114 264.5064,249.2147 277.7352,264.3715 C291.6812,244.3443 308.2483,248.586 319.8655,266.9286 C333.0589,247.1219 348.0615,245.9152 362.9142,265.0965 C369.8464,240.9187 390.4418,240.7792 404.053,258.5458 C416.7492,235.2572 429.7006,237.5711 446.0439,254.7626 C461.8335,231.9916 475.4742,233.2178 489.7055,256.2481 C505.4367,238.1632 525.4466,236.4998 536.8868,261.0019 C544.7667,240.8745 562.149,241.7196 573.9936,256.8267 C591.9054,233.4906 607.6468,239.768 621.4331,261.1985 C636.9832,244.0369 655.043,246.9458 665.271,267.4007 C676.5272,248.671 693.261,246.9348 703.8055,268.0884 C714.879,244.4702 734.8326,244.8902 749.6547,264.0729 C763.9122,248.5262 785.9749,248.0006 793,272 C796.122,272.2596 797.167,274.7133 795.4177,277.2263 C819.5584,288.7901 816.93,307.894 799.1873,322.9136 C819.1579,333.9783 817.799,353.1456 799.2994,364.3144 C820.8149,373.137 823.5726,391.4701 806.4969,406.8265 C833.4495,418.1934 834.0562,438.0329 811.3934,454.4962 C830.084,471.5612 827.2152,489.6934 804.003,499.9445 C825.7925,514.5048 824.1201,531.3262 801.6567,543.5028 C826.2701,556.4018 823.0454,578.9215 802.1933,592.3202 C821.5713,614.0531 812.9245,632.0486 786,637 C787.0373,636.995 787.4793,637.3616 787.1129,638.4408 C776.7626,657.8777 756.6315,657.8887 745.133,639.7227 C735.9585,658.3077 723.8135,661.8921 708.4526,646.3773 C696.9792,665.9714 679.5572,671.0457 664.5309,650.2399 C650.4753,670.7634 630.309,665.9504 620.554,645.6115 C610.4754,672.4621 589.4575,668.7634 574.0884,651.1386 C566.3208,670.6439 548.5307,671.3174 537.5173,654.3974 C520.5122,675.3107 503.8618,674.9968 488.9877,652.0401 C478.9836,671.2581 464.3468,669.7575 451.3431,655.4037 C434.1871,675.6112 416.7055,671.0511 408.8995,646.5312 C398.7013,665.4167 377.4762,672.3864 364.9012,649.0053 C350.2529,668.4478 336.7814,667.2757 324.0498,647.0324 C308.5617,670.5819 289.592,666.8431 278.3883,642.9121 C268.4456,665.2478 252.6817,664.3563 238.9805,646.6071 C213.2688,669.3139 194.5951,657.3391 184,630 C186.2361,629.9174 186.6705,631.3944 185.8579,633.1246 C162.2568,623.2729 162.6234,600.6932 182.7004,587.7988 C156.7363,577.3178 158.1601,556.3043 178.9527,541.9975 C156.7454,528.0002 162.8106,511.682 180.9895,499.626 C156.1734,490.755 151.1942,471.1309 173.754,454.6399 C156.8898,436.112 162.1562,422.8658 182.4787,411.9353 C158.0722,396.7492 157.6627,381.4391 179.0484,363.0404 C160.0963,349.4938 166.8248,330.49 186.094,323.8073 C162.417,303.3871 163.7301,281.17 191,265 C194.6165,266.6354 194.7626,269.6959 191.945,272.1783" style="stroke:#181818;stroke-width:1"/><text id="text16" x="473" y="283.132" fill="#000" font-family="sans-serif" font-size="14" font-weight="bold" lengthAdjust="spacing" textLength="31">AWS</text></g><g id="cluster_user_deployment_a"><rect id="rect19" width="270" height="321" x="200" y="300" fill="none" rx="2.5" ry="2.5" style="stroke:#181818;stroke-width:1"/><text id="text21" x="208" y="315.132" fill="#000" font-family="sans-serif" font-size="14" font-weight="bold" lengthAdjust="spacing" textLength="190">Account A BHE Deployment</text></g><g id="cluster_user_deployment_b"><rect id="rect24" width="283" height="321" x="494" y="300" fill="none" rx="2.5" ry="2.5" style="stroke:#181818;stroke-width:1"/><text id="text26" x="578" y="315.132" fill="#000" font-family="sans-serif" font-size="14" font-weight="bold" lengthAdjust="spacing" textLength="191">Account B BHE Deployment</text></g><g id="elem_domain_assets_a"><rect id="rect29" width="110" height="32.099" x="55" y="173" fill="#F1F1F1" rx="2.5" ry="2.5" style="stroke:#181818;stroke-width:.5"/><rect id="rect31" width="110" height="32.099" x="51" y="169" fill="#F1F1F1" rx="2.5" ry="2.5" style="stroke:#181818;stroke-width:.5"/><text id="text33" x="59" y="190.132" fill="#000" font-family="sans-serif" font-size="14" lengthAdjust="spacing" textLength="94">Domain Assets</text></g><g id="elem_sh_collector_a"><polygon fill="#F1F1F1" points="81.5 52 91.5 42 200.5 42 200.5 78.099 190.5 88.099 81.5 88.099 81.5 52" style="stroke:#181818;stroke-width:.5" id="polygon36"/><line style="stroke:#181818;stroke-width:.5" id="line38" x1="190.5" x2="200.5" y1="52" y2="42"/><line style="stroke:#181818;stroke-width:.5" id="line40" x1="81.5" x2="190.5" y1="52" y2="52"/><line style="stroke:#181818;stroke-width:.5" id="line42" x1="190.5" x2="190.5" y1="52" y2="88.099"/><text id="text44" x="96.5" y="75.132" fill="#000" font-family="sans-serif" font-size="14" lengthAdjust="spacing" textLength="79">SharpHound</text></g><g id="elem_domain_assets_b"><rect id="rect47" width="110" height="32.099" x="914" y="173" fill="#F1F1F1" rx="2.5" ry="2.5" style="stroke:#181818;stroke-width:.5"/><rect id="rect49" width="110" height="32.099" x="910" y="169" fill="#F1F1F1" rx="2.5" ry="2.5" style="stroke:#181818;stroke-width:.5"/><text id="text51" x="918" y="190.132" fill="#000" font-family="sans-serif" font-size="14" lengthAdjust="spacing" textLength="94">Domain Assets</text></g><g id="elem_sh_collector_b"><polygon fill="#F1F1F1" points="894.5 52 904.5 42 1013.5 42 1013.5 78.099 1003.5 88.099 894.5 88.099 894.5 52" style="stroke:#181818;stroke-width:.5" id="polygon54"/><line style="stroke:#181818;stroke-width:.5" id="line56" x1="1003.5" x2="1013.5" y1="52" y2="42"/><line style="stroke:#181818;stroke-width:.5" id="line58" x1="894.5" x2="1003.5" y1="52" y2="52"/><line style="stroke:#181818;stroke-width:.5" id="line60" x1="1003.5" x2="1003.5" y1="52" y2="88.099"/><text id="text62" x="909.5" y="75.132" fill="#000" font-family="sans-serif" font-size="14" lengthAdjust="spacing" textLength="79">SharpHound</text></g><g id="elem_bhe_lb_a"><path id="path65" fill="#F1F1F1" d="M326,335 L428,335 C433,335 433,348.0493 433,348.0493 C433,348.0493 433,361.0986 428,361.0986 L326,361.0986 C321,361.0986 321,348.0493 321,348.0493 C321,348.0493 321,335 326,335" style="stroke:#181818;stroke-width:.5"/><path id="path67" fill="none" d="M428,335 C423,335 423,348.0493 423,348.0493 C423,361.0986 428,361.0986 428,361.0986" style="stroke:#181818;stroke-width:.5"/><text id="text69" x="326" y="353.132" fill="#000" font-family="sans-serif" font-size="14" lengthAdjust="spacing" textLength="92">Load Balancer</text></g><g id="elem_bhe_api_a"><polygon fill="#F1F1F1" points="264 447 274 437 450 437 450 489.197 440 499.197 264 499.197 264 447" style="stroke:#181818;stroke-width:.5" id="polygon72"/><line style="stroke:#181818;stroke-width:.5" id="line74" x1="440" x2="450" y1="447" y2="437"/><line style="stroke:#181818;stroke-width:.5" id="line76" x1="264" x2="440" y1="447" y2="447"/><line style="stroke:#181818;stroke-width:.5" id="line78" x1="440" x2="440" y1="447" y2="499.197"/><text id="text80" x="279" y="470.132" fill="#000" font-family="sans-serif" font-size="14" lengthAdjust="spacing" textLength="146">BloodHound Enterprise</text><text id="text82" x="279" y="486.231" fill="#000" font-family="sans-serif" font-size="14" lengthAdjust="spacing" textLength="21">API</text></g><g id="elem_bhe_rds_a"><path id="path85" fill="#F1F1F1" d="M251,570 C251,560 293,560 293,560 C293,560 335,560 335,570 L335,595.0986 C335,605.0986 293,605.0986 293,605.0986 C293,605.0986 251,605.0986 251,595.0986 L251,570" style="stroke:#181818;stroke-width:.5"/><path id="path87" fill="none" d="M251,570 C251,580 293,580 293,580 C293,580 335,580 335,570" style="stroke:#181818;stroke-width:.5"/><text id="text89" x="261" y="597.132" fill="#000" font-family="sans-serif" font-size="14" lengthAdjust="spacing" textLength="64">AWS RDS</text></g><g id="elem_bhe_neo4j_a"><path id="path92" fill="#F1F1F1" d="M370.5,570 C370.5,560 412,560 412,560 C412,560 453.5,560 453.5,570 L453.5,595.0986 C453.5,605.0986 412,605.0986 412,605.0986 C412,605.0986 370.5,605.0986 370.5,595.0986 L370.5,570" style="stroke:#181818;stroke-width:.5"/><path id="path94" fill="none" d="M370.5,570 C370.5,580 412,580 412,580 C412,580 453.5,580 453.5,570" style="stroke:#181818;stroke-width:.5"/><text id="text96" x="380.5" y="597.132" fill="#000" font-family="sans-serif" font-size="14" lengthAdjust="spacing" textLength="63">Graph DB</text></g><g id="elem_bhe_lb_b"><path id="path99" fill="#F1F1F1" d="M533,335 L635,335 C640,335 640,348.0493 640,348.0493 C640,348.0493 640,361.0986 635,361.0986 L533,361.0986 C528,361.0986 528,348.0493 528,348.0493 C528,348.0493 528,335 533,335" style="stroke:#181818;stroke-width:.5"/><path id="path101" fill="none" d="M635,335 C630,335 630,348.0493 630,348.0493 C630,361.0986 635,361.0986 635,361.0986" style="stroke:#181818;stroke-width:.5"/><text id="text103" x="533" y="353.132" fill="#000" font-family="sans-serif" font-size="14" lengthAdjust="spacing" textLength="92">Load Balancer</text></g><g id="elem_bhe_api_b"><polygon fill="#F1F1F1" points="510 447 520 437 696 437 696 489.197 686 499.197 510 499.197 510 447" style="stroke:#181818;stroke-width:.5" id="polygon106"/><line style="stroke:#181818;stroke-width:.5" id="line108" x1="686" x2="696" y1="447" y2="437"/><line style="stroke:#181818;stroke-width:.5" id="line110" x1="510" x2="686" y1="447" y2="447"/><line style="stroke:#181818;stroke-width:.5" id="line112" x1="686" x2="686" y1="447" y2="499.197"/><text id="text114" x="525" y="470.132" fill="#000" font-family="sans-serif" font-size="14" lengthAdjust="spacing" textLength="146">BloodHound Enterprise</text><text id="text116" x="525" y="486.231" fill="#000" font-family="sans-serif" font-size="14" lengthAdjust="spacing" textLength="21">API</text></g><g id="elem_bhe_rds_b"><path id="path119" fill="#F1F1F1" d="M510,570 C510,560 552,560 552,560 C552,560 594,560 594,570 L594,595.0986 C594,605.0986 552,605.0986 552,605.0986 C552,605.0986 510,605.0986 510,595.0986 L510,570" style="stroke:#181818;stroke-width:.5"/><path id="path121" fill="none" d="M510,570 C510,580 552,580 552,580 C552,580 594,580 594,570" style="stroke:#181818;stroke-width:.5"/><text id="text123" x="520" y="597.132" fill="#000" font-family="sans-serif" font-size="14" lengthAdjust="spacing" textLength="64">AWS RDS</text></g><g id="elem_bhe_neo4j_b"><path id="path126" fill="#F1F1F1" d="M629.5,570 C629.5,560 671,560 671,560 C671,560 712.5,560 712.5,570 L712.5,595.0986 C712.5,605.0986 671,605.0986 671,605.0986 C671,605.0986 629.5,605.0986 629.5,595.0986 L629.5,570" style="stroke:#181818;stroke-width:.5"/><path id="path128" fill="none" d="M629.5,570 C629.5,580 671,580 671,580 C671,580 712.5,580 712.5,570" style="stroke:#181818;stroke-width:.5"/><text id="text130" x="639.5" y="597.132" fill="#000" font-family="sans-serif" font-size="14" lengthAdjust="spacing" textLength="63">Graph DB</text></g><g id="elem_internet"><path id="path133" fill="#F1F1F1" d="M460.0688,172.2794 C464.4965,165.6615 469.3843,165.0329 474.1663,171.9092 C477.3464,165.1798 481.9092,165.0651 486.8013,170.0649 C491.6417,163.9755 497.9803,163.1899 502.2318,170.7315 C505.9206,163.768 512.4464,165.6118 515.5309,171.3635 C520.9121,164.9702 527.4605,165.7025 531.5501,172.8873 C534.983,165.7668 541.2319,166.7252 544.7612,172.7907 C555.3789,173.563 557.128,179.2295 553.8781,188.2042 C558.1306,197.0921 556.8413,203.0858 545.7556,204.1711 C540.4756,210.7372 535.7599,212.2165 530.7248,203.9234 C528.1374,211.3847 521.0939,211.8563 516.2776,206.4201 C511.6901,213.4598 506.1008,213.6206 501.6517,206.2793 C497.8598,212.7378 491.7866,213.8952 487.6358,206.6464 C480.8831,213.1557 476.4267,210.794 472.4551,203.5718 C468.3877,209.6371 461.95,210.3584 458.0079,203.4325 C449.2787,200.6274 448.6025,195.5369 453.33,188.5127 C447.903,181.4273 451.2096,173.4342 460.0688,172.2794" style="stroke:#181818;stroke-width:.5"/><text id="text135" x="477" y="192.132" fill="#000" font-family="sans-serif" font-size="14" lengthAdjust="spacing" textLength="48">Internet</text></g><g id="link_sh_collector_a_domain_assets_a"><path id="sh_collector_a-domain_assets_a" fill="none" d="M82.64,91.77 C72.75,98.81 63.82,107.48 58,118 C48.8,134.61 61.73,151.83 76.74,164.79" style="stroke:#181818;stroke-width:1"/><polygon fill="#181818" points="86.63 89.08 76.933 90.806 82.487 91.88 81.413 97.434 86.63 89.08" style="stroke:#181818;stroke-width:1" id="polygon139"/><polygon fill="#181818" points="80.27 167.7 75.878 158.885 76.415 164.516 70.784 165.053 80.27 167.7" style="stroke:#181818;stroke-width:1" id="polygon141"/></g><g id="g153"><path id="sh_collector_a-domain_assets_a-1" fill="none" d="M117.45,93.48 C112.35,100.97 107.69,109.4 105,118 C100.55,132.25 101.22,148.99 103.04,162.3" style="stroke:#181818;stroke-width:1"/><polygon fill="#181818" points="120.15 89.7 111.671 94.71 117.249 93.772 118.187 99.351 120.15 89.7" style="stroke:#181818;stroke-width:1" id="polygon147"/><polygon fill="#181818" points="103.78 167.04 106.344 157.531 103.009 162.1 98.44 158.764 103.78 167.04" style="stroke:#181818;stroke-width:1" id="polygon149"/></g><g id="g162"><path id="sh_collector_a-domain_assets_a-2" fill="none" d="M140.94,94.68 C140.29,106.99 138.67,121.4 135,134 C132.06,144.09 127.09,154.51 122.21,163.35" style="stroke:#181818;stroke-width:1"/><polygon fill="#181818" points="141.14 89.97 136.784 98.803 140.94 94.966 144.777 99.123 141.14 89.97" style="stroke:#181818;stroke-width:1" id="polygon156"/><polygon fill="#181818" points="119.79 167.6 127.718 161.756 122.263 163.254 120.765 157.799 119.79 167.6" style="stroke:#181818;stroke-width:1" id="polygon158"/><text id="text160" x="156" y="131.194" fill="#000" font-family="sans-serif" font-size="13" lengthAdjust="spacing" textLength="95">AD Enumeration</text></g><g id="link_sh_collector_a_internet"><path id="sh_collector_a-to-internet" fill="none" d="M200.85,85.95 C268.39,108.46 377.46,144.82 443.87,166.96" style="stroke:#181818;stroke-width:1"/><polygon fill="#181818" points="448.32 168.44 441.035 161.812 443.574 166.867 438.519 169.406 448.32 168.44" style="stroke:#181818;stroke-width:1" id="polygon165"/><text id="text167" x="344" y="131.194" fill="#000" font-family="sans-serif" font-size="13" lengthAdjust="spacing" textLength="215">Transmit Collection Data via TLS v1.2</text></g><g id="link_internet_bhe_lb_a"><path id="internet-to-bhe_lb_a" fill="none" d="M483.5,210.44 C458.48,242.52 413.05,300.78 390.47,329.72" style="stroke:#181818;stroke-width:1"/><polygon fill="#181818" points="387.47 333.58 396.156 328.938 390.543 329.635 389.845 324.022 387.47 333.58" style="stroke:#181818;stroke-width:1" id="polygon171"/></g><g id="link_sh_collector_b_domain_assets_b"><path id="sh_collector_b-domain_assets_b" fill="none" d="M926.5,93.37 C917.66,105.51 911.42,120.15 917,134 C921.7,145.68 930.43,156.21 939.28,164.69" style="stroke:#181818;stroke-width:1"/><polygon fill="#181818" points="929.5 89.53 920.814 94.172 926.427 93.475 927.125 99.088 929.5 89.53" style="stroke:#181818;stroke-width:1" id="polygon175"/><polygon fill="#181818" points="942.51 167.65 938.588 158.616 938.828 164.268 933.176 164.507 942.51 167.65" style="stroke:#181818;stroke-width:1" id="polygon177"/></g><g id="g189"><path id="sh_collector_b-domain_assets_b-1" fill="none" d="M957.09,94.53 C959.33,115.18 962.32,142.78 964.43,162.24" style="stroke:#181818;stroke-width:1"/><polygon fill="#181818" points="956.58 89.79 953.554 99.162 957.109 94.762 961.509 98.317 956.58 89.79" style="stroke:#181818;stroke-width:1" id="polygon183"/><polygon fill="#181818" points="964.94 167 967.939 157.619 964.397 162.03 959.987 158.487 964.94 167" style="stroke:#181818;stroke-width:1" id="polygon185"/></g><g id="g198"><path id="sh_collector_b-domain_assets_b-2" fill="none" d="M980.3,93.36 C985.9,100.8 991.02,109.24 994,118 C999.19,133.26 992.6,150.09 984.64,163.2" style="stroke:#181818;stroke-width:1"/><polygon fill="#181818" points="977.31 89.57 979.745 99.113 980.407 93.495 986.025 94.157 977.31 89.57" style="stroke:#181818;stroke-width:1" id="polygon192"/><polygon fill="#181818" points="981.99 167.3 990.235 161.912 984.704 163.101 983.515 157.57 981.99 167.3" style="stroke:#181818;stroke-width:1" id="polygon194"/><text id="text196" x="1012" y="131.194" fill="#000" font-family="sans-serif" font-size="13" lengthAdjust="spacing" textLength="95">AD Enumeration</text></g><g id="link_sh_collector_b_internet"><path id="sh_collector_b-to-internet" fill="none" d="M894.02,70.43 C829.32,76.45 723.88,89.87 637,118 C604.29,128.59 569.66,146 543.54,160.56" style="stroke:#181818;stroke-width:1"/><polygon fill="#181818" points="539.41 162.88 549.214 161.943 543.765 160.424 545.284 154.975 539.41 162.88" style="stroke:#181818;stroke-width:1" id="polygon201"/><text id="text203" x="638" y="131.194" fill="#000" font-family="sans-serif" font-size="13" lengthAdjust="spacing" textLength="215">Transmit Collection Data via TLS v1.2</text></g><g id="link_internet_bhe_lb_b"><path id="internet-to-bhe_lb_b" fill="none" d="M512.72,210.44 C529.39,242.38 559.62,300.29 574.79,329.36" style="stroke:#181818;stroke-width:1"/><polygon fill="#181818" points="576.92 333.43 576.297 323.601 574.604 328.999 569.207 327.306 576.92 333.43" style="stroke:#181818;stroke-width:1" id="polygon207"/></g><g id="link_bhe_lb_a_bhe_api_a"><path id="bhe_lb_a-to-bhe_api_a" fill="none" d="M374.93,361.18 C372.19,377.4 367.21,406.78 363.19,430.48" style="stroke:#181818;stroke-width:1"/><polygon fill="#181818" points="362.39 435.19 367.827 426.978 363.219 430.259 359.938 425.651 362.39 435.19" style="stroke:#181818;stroke-width:1" id="polygon211"/><text id="text213" x="379" y="404.194" fill="#000" font-family="sans-serif" font-size="13" lengthAdjust="spacing" textLength="79">Routed Traffic</text></g><g id="link_bhe_api_a_bhe_rds_a"><path id="bhe_api_a-bhe_rds_a" fill="none" d="M336.57,504.91 C327.46,520.92 316.91,539.47 308.47,554.31" style="stroke:#181818;stroke-width:1"/><polygon fill="#181818" points="338.93 500.76 331.002 506.604 336.457 505.106 337.955 510.56 338.93 500.76" style="stroke:#181818;stroke-width:1" id="polygon217"/><polygon fill="#181818" points="306.21 558.28 314.138 552.436 308.683 553.934 307.185 548.48 306.21 558.28" style="stroke:#181818;stroke-width:1" id="polygon219"/></g><g id="link_bhe_api_a_bhe_neo4j_a"><path id="bhe_api_a-bhe_neo4j_a" fill="none" d="M374.56,504.91 C382.32,520.78 391.29,539.15 398.52,553.92" style="stroke:#181818;stroke-width:1"/><polygon fill="#181818" points="372.55 500.8 372.884 510.643 374.735 505.298 380.08 507.148 372.55 500.8" style="stroke:#181818;stroke-width:1" id="polygon223"/><polygon fill="#181818" points="400.63 558.23 400.258 548.388 398.428 553.741 393.076 551.911 400.63 558.23" style="stroke:#181818;stroke-width:1" id="polygon225"/></g><g id="link_bhe_lb_b_bhe_api_b"><path id="bhe_lb_b-to-bhe_api_b" fill="none" d="M585.96,361.18 C588.57,377.4 593.3,406.78 597.12,430.48" style="stroke:#181818;stroke-width:1"/><polygon fill="#181818" points="597.88 435.19 600.386 425.665 597.079 430.255 592.49 426.947 597.88 435.19" style="stroke:#181818;stroke-width:1" id="polygon229"/><text id="text231" x="601" y="404.194" fill="#000" font-family="sans-serif" font-size="13" lengthAdjust="spacing" textLength="79">Routed Traffic</text></g><g id="link_bhe_api_b_bhe_rds_b"><path id="bhe_api_b-bhe_rds_b" fill="none" d="M586.51,505.38 C579.36,521.16 571.11,539.33 564.48,553.97" style="stroke:#181818;stroke-width:1"/><polygon fill="#181818" points="588.57 500.82 581.197 507.349 586.496 505.369 588.476 510.668 588.57 500.82" style="stroke:#181818;stroke-width:1" id="polygon235"/><polygon fill="#181818" points="562.56 558.22 569.916 551.671 564.622 553.665 562.629 548.371 562.56 558.22" style="stroke:#181818;stroke-width:1" id="polygon237"/></g><g id="link_bhe_api_b_bhe_neo4j_b"><path id="bhe_api_b-bhe_neo4j_b" fill="none" d="M624.71,504.91 C634.38,520.92 645.6,539.47 654.56,554.31" style="stroke:#181818;stroke-width:1"/><polygon fill="#181818" points="622.18 500.74 623.404 510.512 624.763 505.021 630.254 506.38 622.18 500.74" style="stroke:#181818;stroke-width:1" id="polygon241"/><polygon fill="#181818" points="656.98 558.3 655.756 548.528 654.397 554.019 648.906 552.66 656.98 558.3" style="stroke:#181818;stroke-width:1" id="polygon243"/></g></g></svg>